<svg xmlns="http://www.w3.org/2000/svg" viewBox="0 0 500 500"><g id="freepik--background-complete--inject-33"><path d="M120.0227,143.6566c-5.115-.8002-8.9488,1.3839-12.0337,4.6589-2.4063,2.5544-3.0426,5.5362-3.7731,9.1639-.3385,1.6816-.2973,4.0636,.0456,6.4656-1.9073-1.4997-3.9487-2.728-5.5737-3.2771-3.506-1.1842-6.4057-2.1266-9.8216-1.3228-4.3796,1.0304-8.19,3.2552-10.0586,8.0835-1.7547,4.5346,.521,9.7189,3.8573,13.2585,3.3364,3.5393,8.439,6.1478,12.8307,7.6592,9.2092,3.1691,16.8981,5.1522,25.5902,4.7682,5.5524-9.5297,6.8186-14.9801,8.6868-24.5384,.891-4.5584,1.1881-10.2813-.2049-14.9415-1.3932-4.6604-4.7412-9.2262-9.545-9.978Z" style="fill:#ebebeb;"></path><path d="M434.42429,199.2991c-1.3035-3.1032-3.8208-4.4787-6.6859-5.0674-2.2348-.4592-4.1017,.2067-6.3582,1.041-1.0459,.3869-2.3497,1.2229-3.5616,2.2326,.1786-1.5672,.1612-3.116-.0898-4.2025-.5417-2.344-1.0103-4.27-2.6212-5.8856-2.0652-2.0713-4.597-3.4198-7.9063-2.8053-3.1079,.5773-5.19929,3.6062-6.0186,6.6605-.8191,3.0542-.5203,6.7678,.1428,9.7136,1.3906,6.1771,2.9184,11.1081,6.0984,15.7861,7.168-.1815,10.6158-1.3417,16.5419-3.5713,2.82621-1.0633,6.0939-2.8527,8.1967-5.2143,2.1028-2.3619,3.4858-5.773,2.2618-8.6874Z" style="fill:#ebebeb;"></path><path d="M162.6787,97.9034c-2.0622-1.3337-4.145-1.1269-6.1137-.3029-1.5355,.6427-2.3866,1.8121-3.403,3.2432-.4711,.6634-.9129,1.7036-1.2277,2.8106-.5372-1.0179-1.1848-1.944-1.7831-2.4955-1.2908-1.1896-2.3655-2.1574-4.0009-2.4681-2.0966-.3985-4.1771-.1695-5.9184,1.5622-1.6352,1.6265-1.6493,4.3122-.8865,6.4897,.763,2.1775,2.4709,4.2923,4.0824,5.7946,3.3793,3.1501,6.3286,5.4929,10.1694,7.0035,4.2446-3.0584,5.8449-5.176,8.4986-8.9576,1.2656-1.8034,2.4985-4.226,2.794-6.5143,.2954-2.2883-.2745-4.9128-2.2111-6.1654Z" style="fill:#ebebeb;"></path><path d="M80.9402,229.0133c-2.3301-.7758-4.295-.0548-5.9952,1.2352-1.3261,1.0062-1.8577,2.3512-2.4842,3.991-.2902,.7601-.4579,1.8777-.486,3.0283-.7745-.8513-1.6331-1.5861-2.3503-1.9705-1.5472-.829-2.8298-1.4974-4.4909-1.3894-2.1297,.1383-4.0868,.8802-5.3398,2.9923-1.1767,1.9837-.5189,4.5875,.7641,6.5052,1.2831,1.9175,3.4655,3.5382,5.4014,4.5899,4.0596,2.2052,7.501,3.7362,11.5974,4.2386,3.3453-4.0224,4.3653-6.4729,5.9893-10.7978,.7745-2.0626,1.3625-4.7166,1.0766-7.006-.2861-2.2895-1.4941-4.6882-3.6824-5.4168Z" style="fill:#ebebeb;"></path><g><g><g><path d="M443.92039,327.4511h-180.7461c-3.2324,0-5.86229-2.6298-5.86229-5.8623V58.3154c0-3.2324,2.62989-5.8618,5.86229-5.8618h180.7461c3.2324,0,5.8623,2.6294,5.8623,5.8618V321.5888c0,3.2325-2.6299,5.8623-5.8623,5.8623ZM263.17429,52.7036c-3.0947,0-5.61229,2.5176-5.61229,5.6118V321.5888c0,3.0948,2.51759,5.6123,5.61229,5.6123h180.7461c3.0947,0,5.6123-2.5175,5.6123-5.6123V58.3154c0-3.0942-2.5176-5.6118-5.6123-5.6118h-180.7461Z" style="fill:#e0e0e0;"></path><path d="M235.49269,327.4511H54.7461c-3.2324,0-5.8618-2.6298-5.8618-5.8623V58.3154c0-3.2324,2.6294-5.8618,5.8618-5.8618H235.49269c3.2324,0,5.86231,2.6294,5.86231,5.8618V321.5888c0,3.2325-2.62991,5.8623-5.86231,5.8623ZM54.7461,52.7036c-3.0942,0-5.6118,2.5176-5.6118,5.6118V321.5888c0,3.0948,2.5176,5.6123,5.6118,5.6123H235.49269c3.0947,0,5.61231-2.5175,5.61231-5.6123V58.3154c0-3.0942-2.51761-5.6118-5.61231-5.6118H54.7461Z" style="fill:#e0e0e0;"></path></g><rect x="0" y="388.5205" width="500" height=".25" style="fill:#e0e0e0;"></rect></g><rect x="51.6724" y="402.7851" width="16.06" height=".25" style="fill:#e0e0e0;"></rect><rect x="170.3524" y="400.075" width="53.53" height=".25" style="fill:#e0e0e0;"></rect><rect x="68.7324" y="412.075" width="36.25" height=".25" style="fill:#e0e0e0;"></rect><rect x="378.35239" y="399.945" width="43.19" height=".25" style="fill:#e0e0e0;"></rect><rect x="430.45239" y="399.945" width="6.33" height=".25" style="fill:#e0e0e0;"></rect><rect x="316.21239" y="406.175" width="53.89" height=".25" style="fill:#e0e0e0;"></rect></g><g><path d="M423.35319,292.0199c-12.44019-.3844-33.4443,10.6883-38.8149,44.6701-7.2519,45.8876,18.6423,54.4543,32.4934,54.8727,18.23731,.5511,41.3105-7.6759,40.1781-44.9988-1.1579-38.1605-21.7817-54.1706-33.8566-54.544Z" style="fill:#ebebeb;"></path><path d="M429.66229,301.1689c-.78529-.7301-1.6458-1.3311-2.5347-1.8257-4.8037-2.6734-10.73-2.18-15.296,.8817-9.951,6.6727-16.8974,17.8198-18.1724,29.763-.4037,3.7815,.1363,8.4515,4.8797,9.1314,1.4067,.2016,2.8413-.0577,4.1567-.5953l11.2555-4.5995c4.7956-1.9597,9.6516-3.9532,13.7857-7.0753,4.1341-3.122,7.5331-7.5553,8.2935-12.6796,.7606-5.1244-2.5736-9.4736-6.368-13.0007Z" style="fill:#f5f5f5;"></path></g><g><path d="M53.5091,326.1778c-7.4485,1.523-18.3744,11.0617-16.7825,32.0164,2.1499,28.2965,18.7474,29.7429,27.0394,28.0415,10.9178-2.24,23.4742-10.3785,17.5465-32.4037-6.0608-22.5195-20.5736-29.1322-27.8034-27.6542Z" style="fill:#f0f0f0;"></path><path d="M58.5473,330.7277c-.5696-.3234-1.1657-.5595-1.7637-.7283-3.2317-.9128-6.6847,.2149-8.9677,2.6776-4.9755,5.3671-7.535,12.9709-6.6114,20.2494,.2924,2.3046,1.2709,5.0044,4.186,4.7407,.8646-.0782,1.6808-.4343,2.387-.939l6.0427-4.3186c2.5745-1.84,5.1803-3.7086,7.198-6.1464,2.0178-2.4378,3.414-5.5514,3.1445-8.7044-.2694-3.153-2.8635-5.2687-5.6154-6.831Z" style="fill:#f5f5f5;"></path></g><g><path d="M98.3721,294.3423c-12.1758,2.5798-29.9511,18.3221-27.1012,52.6074,3.8485,46.2975,31.0361,48.4723,44.5906,45.5907,17.8468-3.794,38.3075-17.2631,28.3475-53.2504-10.1836-36.7948-34.0185-47.4514-45.8369-44.9477Z" style="fill:#ebebeb;"></path><path d="M106.6727,301.7321c-.9361-.5228-1.9147-.9023-2.8956-1.1718-5.3011-1.4566-10.9408,.4295-14.6495,4.4876-8.0826,8.8442-12.1842,21.3217-10.5876,33.2262,.5055,3.7692,2.1387,8.1775,6.9079,7.712,1.4144-.1381,2.7464-.7306,3.8966-1.5651l9.8419-7.1399c4.1933-3.0421,8.4372-6.1315,11.712-10.1457,3.2748-4.0141,5.5243-9.1275,5.0465-14.2859-.4777-5.1585-4.7489-8.5918-9.2722-11.1174Z" style="fill:#f5f5f5;"></path></g><g><polygon points="314.56869 79.7444 316.46659 80.8115 314.544 81.8338 313.47689 83.7318 312.45439 81.8093 310.55649 80.7419 312.47909 79.7198 313.54639 77.8216 314.56869 79.7444" style="fill:#ebebeb;"></polygon><polygon points="327.92089 94.2572 332.089 96.6007 327.86689 98.846 325.52289 103.0143 323.27779 98.7919 319.10969 96.4481 323.332 94.2032 325.67569 90.0348 327.92089 94.2572" style="fill:#ebebeb;"></polygon></g><polygon points="105.9154 221.5324 110.0835 223.8759 105.8614 226.1211 103.5174 230.2895 101.2724 226.0671 97.1042 223.7233 101.3265 221.4783 103.6702 217.31 105.9154 221.5324" style="fill:#ebebeb;"></polygon><polygon points="420.67959 261.2954 425.877 264.2177 420.61229 267.0173 417.68949 272.215 414.89009 266.95 409.69279 264.0274 414.95759 261.2281 417.88 256.0304 420.67959 261.2954" style="fill:#ebebeb;"></polygon><polygon points="427.93759 246.6545 430.53619 248.1157 427.90389 249.5155 426.44249 252.1143 425.04279 249.4818 422.44409 248.0205 425.07649 246.6209 426.53769 244.022 427.93759 246.6545" style="fill:#ebebeb;"></polygon><polygon points="169.5407 140.6708 172.1394 142.1319 169.507 143.5317 168.0456 146.1306 166.6459 143.498 164.0472 142.0367 166.6796 140.6371 168.1409 138.0382 169.5407 140.6708" style="fill:#ebebeb;"></polygon></g><g id="freepik--Shadow--inject-33"><path d="M393.55719,431.7042c0,7.9548-64.2727,14.4035-143.55719,14.4035s-143.5572-6.4487-143.5572-14.4035,64.2727-14.4038,143.5572-14.4038,143.55719,6.4488,143.55719,14.4038Z" style="fill:#f5f5f5;"></path></g><g id="freepik--Chicken--inject-33"><g><g><path d="M288.95669,124.6525c-4.3118-.5172-8.51869,1.5587-12.52169,3.5945,2.36739-4.9201,4.77409-9.9646,5.66109-15.5753,.88691-5.6107-.0264-11.9953-3.4729-15.8343-3.9277-4.375-9.89819-4.3456-15.1179-3.2047-24.24129,5.2989-44.6614,30.779-48.5987,60.6413l52.6592,3.24c9.1713-.8846,18.0869-5.4065,25.0957-12.7279,2.5487-2.6625,5.0027-6.127,4.9889-10.2373-.0179-5.3228-4.3819-9.379-8.6937-9.8963Z" style="fill:#407BFF;"></path><path d="M210.978,148.0775c-3.90737-7.95828-7.03822-16.52179-7.21639-25.5204-.12676-8.83592,3.2732-18.61605,11.0052-23.46372-6.4757,5.99269-9.12046,14.85453-9.00662,23.4343,.09352,8.73903,2.85929,17.15829,5.21782,25.54982h0Z" style="fill:#407BFF;"></path></g><path d="M202.62119,422.5162c-7.4293,1.3029-14.5244,4.4694-20.4553,9.1293-.9663,.7593-1.9338,1.5985-2.4247,2.7251-.491,1.1267-.3624,2.6144,.608,3.3684,.8757,.6804,2.1091,.5783,3.2047,.4062,4.0329-.6338,7.9866-1.7701,11.7405-3.3744-3.3974,2.6387-6.2289,5.9975-8.278,9.7791-.922,1.7017,.7129,3.63,2.5688,3.0809,4.897-1.4488,9.5599-3.6896,13.7436-6.6186-1.3767,2.0963-2.7927,4.29-2.7007,6.9115,.0546,1.5551,.8215,3.093,2.1775,3.8563,2.982,1.6791,6.3665-1.1935,8.5537-3.7989,5.8563-6.9762,11.7126-13.9523,17.569-20.9284l-26.3071-4.5365Z" style="fill:#407BFF;"></path><path d="M285.85839,425.6789c7.4293,1.3028,14.5243,4.4694,20.4553,9.1293,.96631,.7593,1.9338,1.5985,2.4247,2.7251s.3624,2.6143-.608,3.3684c-.8757,.6804-2.1091,.5783-3.2047,.4061-4.0329-.6337-7.9866-1.77-11.7406-3.3744,3.3974,2.6388,6.22891,5.9976,8.2781,9.7792,.922,1.7017-.7129,3.63-2.5688,3.0809-4.897-1.4488-9.56-3.6897-13.7436-6.6187,1.3766,2.0963,2.7927,4.29,2.7006,6.9116-.0546,1.5551-.8215,3.0929-2.17739,3.8563-2.982,1.6791-6.36651-1.1935-8.55371-3.7989-5.85629-6.9762-11.7127-13.9523-17.569-20.9285l26.3071-4.5364Z" style="fill:#407BFF;"></path><path d="M175.1132,349.215c-14.2847,4.722-29.5737,10.1662-38.0785,22.3696-1.7296,2.4818-3.1674,5.5177-2.3606,8.4176,.7276,2.6153,3.1794,4.4965,5.8114,5.3265,2.632,.8299,5.4561,.7841,8.2203,.73-6.3047,.8871-10.3153,8.8324-7.2109,14.2853,3.1045,5.4528,12.1072,6.276,16.1865,1.4799-1.2918,2.821,.3553,6.3106,3.0045,7.9883,2.6493,1.6777,5.9946,1.8962,9.1372,1.6342,8.4759-.7068,16.6264-4.6614,22.3407-10.8396l-17.0506-51.3918Z" style="fill:#407BFF;"></path><g style="opacity:.6;"><path d="M175.1132,349.215c-14.2847,4.722-29.5737,10.1662-38.0785,22.3696-1.7296,2.4818-3.1674,5.5177-2.3606,8.4176,.7276,2.6153,3.1794,4.4965,5.8114,5.3265,2.632,.8299,5.4561,.7841,8.2203,.73-6.3047,.8871-10.3153,8.8324-7.2109,14.2853,3.1045,5.4528,12.1072,6.276,16.1865,1.4799-1.2918,2.821,.3553,6.3106,3.0045,7.9883,2.6493,1.6777,5.9946,1.8962,9.1372,1.6342,8.4759-.7068,16.6264-4.6614,22.3407-10.8396l-17.0506-51.3918Z" style="fill:#fff;"></path></g><path d="M173.3668,411.1717s-20.842-12.086-21.4346-31.5053c-.5926-19.4194,10.8816-26.6917,10.8816-26.6917l11.8837,57.2354-2.1563,1.3291" style="opacity:.3;"></path><g><path d="M232.30579,150.5313c42.3633-2.9208,84.2927,12.0051,114.2596,42.091,28.4889,28.6021,35.603,59.615,34.17661,82.408-2.15881,34.4974-26.449,66.7141-59.45361,78.8548,4.4777-2.0112,9.1048-4.0584,14.0273-4.2203,4.9224-.1619,10.2681,2.0396,12.2592,6.4564,1.99111,4.4168-1.0891,10.6805-6.0142,10.713,4.2541-3.1925,10.36731-3.8016,15.1895-1.5135,4.8221,2.2882,8.1279,7.3667,8.21381,12.6185,.10039,6.1419-3.77921,11.6285-7.93541,16.2248-14.3111,15.8268-33.7901,26.707-54.4734,32.7177-20.68319,6.0108-42.5638,7.3367-64.09219,5.9824-15.10451-.9502-30.327-3.2575-44.1716-9.2544-13.8447-5.997-26.2925-15.9998-32.867-29.3666-6.5745-13.3667-6.4965-30.2448,2.1693-42.4116,0,0-59.9035-24.6746-54.3332-85.4339,5.5704-60.7592,62.6663-108.5474,104.4438-114.0089,6.5448-.8556,12.765-1.455,18.6015-1.8574Z" style="fill:#407BFF;"></path><g style="opacity:.6;"><path d="M232.30579,150.5313c42.3633-2.9208,84.2927,12.0051,114.2596,42.091,28.4889,28.6021,35.603,59.615,34.17661,82.408-2.15881,34.4974-26.449,66.7141-59.45361,78.8548,4.4777-2.0112,9.1048-4.0584,14.0273-4.2203,4.9224-.1619,10.2681,2.0396,12.2592,6.4564,1.99111,4.4168-1.0891,10.6805-6.0142,10.713,4.2541-3.1925,10.36731-3.8016,15.1895-1.5135,4.8221,2.2882,8.1279,7.3667,8.21381,12.6185,.10039,6.1419-3.77921,11.6285-7.93541,16.2248-14.3111,15.8268-33.7901,26.707-54.4734,32.7177-20.68319,6.0108-42.5638,7.3367-64.09219,5.9824-15.10451-.9502-30.327-3.2575-44.1716-9.2544-13.8447-5.997-26.2925-15.9998-32.867-29.3666-6.5745-13.3667-6.4965-30.2448,2.1693-42.4116,0,0-59.9035-24.6746-54.3332-85.4339,5.5704-60.7592,62.6663-108.5474,104.4438-114.0089,6.5448-.8556,12.765-1.455,18.6015-1.8574Z" style="fill:#fff;"></path></g></g><g><path d="M232.80269,265.5951c-5.8396,3.5575-13.3006,6.1768-29.753,3.7614-16.4524-2.4153-20.3898-7.9099-10.7119-18.2958,5.4023-5.7976,11.3325-9.6151,15.4196-10.6557,3.6049-.9178,7.4081-.2318,10.5138,1.8157,6.3339,4.1755,23.74681,17.7602,14.5315,23.3744Z" style="fill:#407BFF;"></path><ellipse cx="279.80337" cy="261.7097" rx="13.72577" ry="4.4839" style="fill:#407BFF;"></ellipse><ellipse cx="161.87512" cy="261.8551" rx="13.72572" ry="4.4839" style="fill:#407BFF;"></ellipse><g><path d="M289.015,222.9347c1.10669,13.5739-4.98451,25.6363-13.60681,26.9458-8.61919,1.3105-16.5043-8.6285-17.6107-22.2006-1.1093-13.5697,4.9814-25.6358,13.6021-26.9465,8.6192-1.3108,16.5043,8.6285,17.61541,22.2013Z" style="fill:#263238;"></path><path d="M271.42139,215.4554c.012,4.6039-1.4326,8.3397-3.2259,8.3443-1.7936,.0047-3.2571-3.7238-3.269-8.3277-.0117-4.6036,1.4326-8.3396,3.2262-8.3443,1.79331-.0044,3.2568,3.7238,3.2687,8.3277Z" style="fill:#fff;"></path></g><g><path d="M185.1497,225.4128c1.1067,13.5739-4.9845,25.6363-13.6068,26.9458-8.6192,1.3105-16.5042-8.6285-17.6107-22.2006-1.1093-13.5698,4.9815-25.6358,13.6022-26.9466,8.6191-1.3107,16.5042,8.6285,17.6153,22.2014Z" style="fill:#263238;"></path><path d="M167.5562,217.9335c.0119,4.6039-1.4327,8.3396-3.226,8.3443-1.7936,.0047-3.2571-3.7238-3.269-8.3277-.0117-4.6036,1.4326-8.3396,3.2262-8.3443,1.7933-.0044,3.2568,3.7238,3.2688,8.3277Z" style="fill:#fff;"></path></g><path d="M198.44039,267.1654s4.38361,8.5019,15.8474,8.5019,20.4346-11.5446,20.4346-11.5446l-36.282,3.0427Z" style="fill:#407BFF;"></path><path d="M189.34009,264.82541c9.95774,5.87362,27.01705,5.31223,38.04253,2.72624,1.57138-.39088,3.82525-1.09345,5.34037-1.6359-11.30959,5.69593-32.89718,6.66851-43.3829-1.09034h0Z" style="fill:#263238;"></path><path d="M213.84599,245.5625c1.39237-.0145,2.58042,1.027,2.73545,2.41344-1.29051-.55864-2.01679-1.2064-2.73545-2.41344h0Z" style="fill:#263238;"></path></g><g><path d="M285.24479,387.3276c1.0256,6.1798,4.8227,11.6868,9.7428,15.6377s10.9041,6.4571,17.03541,8.1442c2.86149,.7874,5.82729,1.4112,8.79679,1.1586s5.97321-1.4873,7.7855-3.8253c1.8124-2.3379,2.1348-5.8654,.2966-8.152,3.4312,1.3702,7.0152,2.7657,10.7227,2.4974,3.7075-.2682,7.553-2.7464,8.03841-6.3695,.39509-2.9495-1.54711-5.8085-4.09681-7.3848,3.1331,1.0311,6.4717,1.8778,9.7307,1.2637s6.387-3.0774,6.7219-6.3187c.4117-3.9847-3.2449-7.1279-6.7291-9.1703-8.9742-5.2606-19.32269-8.2591-29.803-8.6353" style="opacity:.3;"></path><g><path d="M347.84839,373.4419c-8.9743-5.2607-19.3228-8.2592-29.8031-8.6354l-38.2419,21.1543c1.02561,6.1798,4.8227,11.6868,9.7428,15.6377s10.9041,6.4571,17.0354,8.1442c2.86141,.7874,5.8273,1.4112,8.7968,1.1586,2.9695-.2527,5.9732-1.4873,7.7855-3.8252,1.8123-2.338,2.1348-5.8655,.2966-8.152,3.4312,1.3702,7.0152,2.7656,10.7226,2.4974,3.7076-.2683,7.5531-2.7465,8.0384-6.3696,.3952-2.9495-1.547-5.8085-4.0968-7.3847,3.1332,1.031,6.4718,1.8777,9.7307,1.2636,3.2591-.6141,6.3871-3.0774,6.722-6.3186,.4118-3.9848-3.245-7.128-6.729-9.1703Z" style="fill:#407BFF;"></path><path d="M347.84839,373.4419c-8.9743-5.2607-19.3228-8.2592-29.8031-8.6354l-38.2419,21.1543c1.02561,6.1798,4.8227,11.6868,9.7428,15.6377s10.9041,6.4571,17.0354,8.1442c2.86141,.7874,5.8273,1.4112,8.7968,1.1586,2.9695-.2527,5.9732-1.4873,7.7855-3.8252,1.8123-2.338,2.1348-5.8655,.2966-8.152,3.4312,1.3702,7.0152,2.7656,10.7226,2.4974,3.7076-.2683,7.5531-2.7465,8.0384-6.3696,.3952-2.9495-1.547-5.8085-4.0968-7.3847,3.1332,1.031,6.4718,1.8777,9.7307,1.2636,3.2591-.6141,6.3871-3.0774,6.722-6.3186,.4118-3.9848-3.245-7.128-6.729-9.1703Z" style="fill:#fff; opacity:.6;"></path></g><path d="M279.80341,385.96078c1.99899,10.85956,11.63111,18.26383,21.54451,21.75081,4.92574,1.65452,10.28206,3.51473,15.49878,2.54456,5.12501-.79376,9.6222-6.26372,6.25103-11.04056-.30413-.35832,.1129-.90754,.53555-.72385,3.54105,1.39363,7.20052,2.84097,11.02328,2.38312,3.48363-.43216,7.35047-3.08762,7.12234-6.93571-.16055-2.40674-1.82919-4.58213-3.8977-5.87784-.21786-.13425-.28568-.41968-.15143-.63754,.11426-.18539,.34155-.26083,.53998-.19681,2.4707,.81723,5.00562,1.5029,7.55954,1.46039,4.9705,.21878,10.48415-4.59453,7.58555-9.64117-1.21854-2.21716-3.35673-3.85974-5.54856-5.20966-8.99709-5.37651-19.33574-8.52181-29.82098-9.03004,10.5408,.24798,21.03483,3.13529,30.15767,8.46607,2.29182,1.37221,4.53003,3.02507,5.88409,5.40554,3.29558,5.63364-2.66062,11.09-8.23931,10.89954-2.72919,.05583-5.35889-.65535-7.86774-1.47032l.38855-.83432c2.27075,1.41888,4.15128,3.77017,4.37088,6.60571,.29167,4.37592-3.96985,7.51742-7.95732,7.97221-3.99913,.47942-7.90267-1.05321-11.49419-2.49455l.53543-.72394c.91928,1.14948,1.33981,2.62463,1.31821,4.04965,.04157,4.45726-4.06948,7.72254-8.1237,8.41414-5.47648,.99263-10.82404-.99648-15.90171-2.76297-5.03013-1.92085-9.88682-4.5764-13.74698-8.38979-3.84833-3.76883-6.73676-8.64764-7.56577-13.98267h0Z" style="fill:#263238;"></path></g><g style="opacity:.3;"><path d="M293.47229,361.719c10.0639-.2424,18.4583-.2472,27.0889-4.9085,2.7927-1.5084,7.3595-4.7187,9.2285-6.5371-10.8452,4.963-24.5996,9.223-36.3174,11.4456Z"></path></g><path d="M391.10547,265.85938c-.27051,0-.49316-.21582-.5-.48828-.52441-21.8418-8.6416-43.00781-22.85742-59.59814-.17969-.20947-.15527-.52539,.05469-.70508,.20898-.17822,.52539-.15527,.70508,.05469,14.36523,16.76465,22.56738,38.15283,23.09766,60.2251,.00684,.27539-.21191,.50488-.48828,.51172h-.01172Z" style="fill:#407BFF;"></path><path d="M389.99414,280.55664c-.02246,0-.0459-.00098-.06836-.00488-.27441-.03711-.46582-.28906-.42773-.5625l.69043-5.05762c.03711-.27344,.2959-.47461,.5625-.42773,.27344,.03711,.46582,.28906,.42773,.5625l-.69043,5.05762c-.03418,.25098-.24805,.43262-.49414,.43262Z" style="fill:#407BFF;"></path><g style="opacity:.3;"><path d="M226.49509,398.5948c-3.9864,3.3843-10.2555,3.7261-14.5862,.7954s-6.3441-8.8775-4.6845-13.8363c-1.42,2.9573-5.8266,5.3097-9.0661,4.7922s-6.3438-2.8024-7.5797-5.8413c-1.236-3.0388,.145-7.4431,1.3751-10.4843,0,0-9.7893,10.2062,1.0221,17.0211,5.7098,3.5992,11.2323,1.0429,11.2323,1.0429,0,0,1.8451,12.0997,11.8911,12.0997,6.5366,0,10.3959-5.5894,10.3959-5.5894Z"></path></g></g></g><g id="freepik--Speech_Bubble--inject-33"><g><g><path d="M400.397,98.6277c-15.53551-12.0214-37.87481-9.1728-49.89611,6.3627-9.2807,11.9934-9.6633,28.0248-2.2232,40.2505l-3.108,10.2206,11.24631-.9593c.15469,.124,.29049,.2624,.44789,.3842,15.5353,12.0215,37.8744,9.1726,49.8958-6.3628,12.0214-15.5355,9.1727-37.8746-6.36269-49.8959Z" style="fill:#407BFF;"></path><path d="M400.397,98.6277c-15.53551-12.0214-37.87481-9.1728-49.89611,6.3627-9.2807,11.9934-9.6633,28.0248-2.2232,40.2505l-3.108,10.2206,11.24631-.9593c.15469,.124,.29049,.2624,.44789,.3842,15.5353,12.0215,37.8744,9.1726,49.8958-6.3628,12.0214-15.5355,9.1727-37.8746-6.36269-49.8959Z" style="fill:#fff; opacity:.7;"></path><path d="M418.70215,126.62793l-.0127-.00049c-.13867-.00732-.24414-.12451-.2373-.2627,.59961-11.41943-5.02344-23.0957-14.32715-29.74609-.1123-.08057-.1377-.23682-.05762-.34912,.08008-.11328,.23633-.13867,.34863-.05811,9.43848,6.74805,15.14453,18.59375,14.53613,30.17969-.00781,.1333-.11816,.23682-.25,.23682Z" style="fill:#407BFF;"></path><path d="M417.27344,137.07861c-.03223,0-.06445-.00586-.0957-.01904-.12695-.05225-.18848-.19873-.13574-.32617,.65625-1.59033,.98242-3.3418,.94531-5.06396-.00293-.13818,.10645-.25244,.24414-.25537h.00586c.13574,0,.24707,.1084,.25,.24463,.03906,1.79053-.30078,3.61133-.98242,5.26514-.04004,.09668-.13281,.15479-.23145,.15479Z" style="fill:#407BFF;"></path></g><path d="M394.17919,116.6054c-2.4306-1.9589-5.091-1.9731-7.6889-1.1918-2.02629,.6092-3.257,1.975-4.7314,3.6497-.6834,.7763-1.3794,2.0329-1.924,3.3907-.5444-1.3578-1.2406-2.6144-1.92389-3.3907-1.47451-1.6747-2.70511-3.0405-4.73141-3.6497-2.5979-.7813-5.2583-.7671-7.6889,1.1918-2.2826,1.8399-2.6558,5.2332-1.9795,8.0871,.6764,2.8537,2.5557,5.7533,4.3942,7.8658,3.8553,4.4296,7.2739,7.7817,11.9295,10.1997,5.771-3.3048,8.0743-5.7701,11.9296-10.1997,1.8386-2.1125,3.7178-5.0121,4.3942-7.8658,.67631-2.8539,.303-6.2472-1.9795-8.0871Z" style="fill:#407BFF;"></path></g></g></svg>
