<svg xmlns="http://www.w3.org/2000/svg" viewBox="0 0 500 500"><g id="freepik--background-simple--inject-122"><path d="M485.17,225.56c-.56-39-15.88-76.6-39.2-105.65a204.35,204.35,0,0,0-48-43.47c-18.6-12-38.83-25.5-61.27-27.57A44.11,44.11,0,0,0,320,50.23c-20.93,6.24,20.49,28.48,25.9,31.74C288,57.2,228.1,32.05,164.81,34.42c-12.2.46-24.86,2.1-35.59,8.87s-19,19.84-17.43,32.78c1.32,10.71,8.55,22.66,1.77,31-1.94,2.39-4.69,3.8-7.38,5-13.85,6.3-28.79,9.6-41.91,17.62C44,142.16,30.1,165,23.68,189s-6.12,49.2-3.6,73.61c4.75,45.93,17.65,91.5,43.77,127.22,37.3,51,98.46,77,159.72,81.29,74.13,5.19,154.49-22,203.51-84.79C434.35,377,441,366.65,443.66,355s.55-25-7.59-32.68c-2.19-2.07-5-4.26-4.78-7.47.32-4.34,5.54-5.81,9.52-6.72,26.09-6,41-37.64,43.7-66.1A150.93,150.93,0,0,0,485.17,225.56Z" style="fill:#92E3A9"></path><path d="M485.17,225.56c-.56-39-15.88-76.6-39.2-105.65a204.35,204.35,0,0,0-48-43.47c-18.6-12-38.83-25.5-61.27-27.57A44.11,44.11,0,0,0,320,50.23c-20.93,6.24,20.49,28.48,25.9,31.74C288,57.2,228.1,32.05,164.81,34.42c-12.2.46-24.86,2.1-35.59,8.87s-19,19.84-17.43,32.78c1.32,10.71,8.55,22.66,1.77,31-1.94,2.39-4.69,3.8-7.38,5-13.85,6.3-28.79,9.6-41.91,17.62C44,142.16,30.1,165,23.68,189s-6.12,49.2-3.6,73.61c4.75,45.93,17.65,91.5,43.77,127.22,37.3,51,98.46,77,159.72,81.29,74.13,5.19,154.49-22,203.51-84.79C434.35,377,441,366.65,443.66,355s.55-25-7.59-32.68c-2.19-2.07-5-4.26-4.78-7.47.32-4.34,5.54-5.81,9.52-6.72,26.09-6,41-37.64,43.7-66.1A150.93,150.93,0,0,0,485.17,225.56Z" style="fill:#fff;opacity:0.7000000000000001"></path></g><g id="freepik--Clouds--inject-122"><path d="M483.69,130.25H105.39a.52.52,0,0,1-.5-.45.5.5,0,0,1,.39-.54l23.17-5.41a56.66,56.66,0,0,1,6.2-9.25c3.75-4.5,25.88-4.17,29.56-4.09.16-1.61,1.16-7,7.06-16.14,6.6-10.26,32.45-5.94,37.24-5-.57-3.45-2.21-18.22,8.86-28.59,11.92-11.17,49.34-1,54.54.51A57.55,57.55,0,0,1,281.27,39c8.66-12.13,29.13-21.63,60.61-11.88,30.17,9.33,52,46.7,55.26,52.52,5.77-9.22,12.07-14.46,18.75-15.57,6-1,12.36,1.3,19,6.82,13.55,11.29,22.58,45.54,23.5,49.15l25.5,9.27a.5.5,0,0,1,.32.55A.51.51,0,0,1,483.69,130.25Zm-374-1H480.86l-23.08-8.4a.48.48,0,0,1-.31-.34c-.09-.38-9.48-37.42-23.24-48.88-6.38-5.32-12.5-7.54-18.18-6.6-6.55,1.09-12.78,6.42-18.51,15.83a.42.42,0,0,1-.44.24.48.48,0,0,1-.43-.26c-.22-.43-22.9-42.84-55.08-52.8-31-9.58-51-.34-59.51,11.51A56,56,0,0,0,272.81,62a.47.47,0,0,1-.23.35.49.49,0,0,1-.41.06c-.42-.12-42-12.26-54.12-.89s-8.47,28.22-8.43,28.38a.49.49,0,0,1-.13.46.47.47,0,0,1-.46.14c-.3-.06-30.16-6-36.92,4.47s-6.94,16-6.94,16.11a.51.51,0,0,1-.15.35.5.5,0,0,1-.36.14c-7.1-.21-26.17,0-29.24,3.73a54.09,54.09,0,0,0-6.18,9.26.5.5,0,0,1-.34.26Z" style="fill:#263238"></path><path d="M360.45,114.64a.48.48,0,0,1-.49-.46c0-.1-.68-10.57,11.25-14.55,10-3.34,21.46,3.22,25.06,5.55-4.08-15.57.21-24.42.4-24.8a.49.49,0,0,1,.67-.22.5.5,0,0,1,.22.67c-.05.09-4.53,9.4,0,25.38a.5.5,0,0,1-.77.54c-.14-.1-14-9.94-25.29-6.17S360.92,113.71,361,114.11a.49.49,0,0,1-.46.53Z" style="fill:#263238"></path><path d="M226.29,104.5a.5.5,0,0,1-.4-.79l2.34-3.13c2.13-2.83,9.34-3.25,11.5-3.31-.47-2.72-1.82-14,6.52-21s21.56-.08,24.82,1.85l.74-16.31a.5.5,0,0,1,.52-.48.51.51,0,0,1,.48.53L272,79.07a.49.49,0,0,1-.77.39c-.15-.09-15.4-9.84-24.37-2.37s-6.1,20.43-6.07,20.56a.51.51,0,0,1-.1.43.49.49,0,0,1-.39.19c-2.53,0-9.5.52-11.3,2.91l-2.34,3.12A.48.48,0,0,1,226.29,104.5Z" style="fill:#263238"></path><path d="M157.76,205.27H18.84a.5.5,0,0,1-.5-.44.51.51,0,0,1,.39-.55l8.36-1.95A20.69,20.69,0,0,1,29.34,199c1.4-1.68,8.5-1.68,10.82-1.62a16.66,16.66,0,0,1,2.6-5.78c2.37-3.68,11-2.51,13.56-2.07a12.06,12.06,0,0,1,3.42-10.34c4.3-4,17.15-.77,20,0a21.17,21.17,0,0,1,3.42-8c3.25-4.54,10.9-8.11,22.61-4.48,10.72,3.32,18.38,15.75,20.22,19,2.09-3.18,4.38-5,6.81-5.41s4.73.49,7.23,2.57c4.89,4.08,8.18,16.08,8.69,18l9.21,3.35a.51.51,0,0,1,.32.56A.49.49,0,0,1,157.76,205.27Zm-134.58-1H154.92l-6.79-2.47a.48.48,0,0,1-.31-.35c0-.13-3.46-13.64-8.43-17.78-2.27-1.89-4.43-2.68-6.42-2.35-2.31.38-4.53,2.29-6.58,5.67a.46.46,0,0,1-.44.24.51.51,0,0,1-.43-.27c-.08-.16-8.35-15.62-20-19.23-11.21-3.47-18.46-.16-21.5,4.11a20.41,20.41,0,0,0-3.35,8.08.51.51,0,0,1-.22.35.52.52,0,0,1-.42.06c-.15,0-15.24-4.45-19.56-.4s-3,10.06-3,10.12a.49.49,0,0,1-.13.46.49.49,0,0,1-.46.14c-3-.62-11.26-1.55-13.22,1.5-2.44,3.79-2.5,5.73-2.5,5.75a.57.57,0,0,1-.16.36.51.51,0,0,1-.36.14c-3.56-.11-9.55.13-10.48,1.25A19.42,19.42,0,0,0,27.88,203a.51.51,0,0,1-.33.26Z" style="fill:#263238"></path><path d="M112.5,199.54a.5.5,0,0,1-.5-.46,5.82,5.82,0,0,1,4.35-5.67c3.32-1.1,7,.63,8.82,1.67-1.21-5.37.28-8.44.35-8.58a.5.5,0,0,1,.89.45s-1.6,3.36,0,9.09a.51.51,0,0,1-.19.55.5.5,0,0,1-.58,0s-5-3.55-9-2.22S113,198.87,113,199a.5.5,0,0,1-.46.53Z" style="fill:#263238"></path><path d="M63.23,195.82a.49.49,0,0,1-.3-.1.51.51,0,0,1-.1-.7l.86-1.15c.78-1,3-1.27,4.11-1.33-.2-1.45-.38-5.18,2.56-7.63s7.3-.54,9,.39l.24-5.47a.51.51,0,0,1,.53-.48.49.49,0,0,1,.47.52l-.28,6.31a.51.51,0,0,1-.27.42.5.5,0,0,1-.5,0c-.06,0-5.47-3.49-8.58-.89s-2.13,7.19-2.12,7.23a.51.51,0,0,1-.1.43.49.49,0,0,1-.39.19c-1.23,0-3.38.26-3.9.94l-.86,1.15A.48.48,0,0,1,63.23,195.82Z" style="fill:#263238"></path></g><g id="freepik--Trees--inject-122"><path d="M464.32,252.79c0,48.67-28.79,88.13-64.31,88.13s-64.31-39.46-64.31-88.13,28.79-216,64.31-216S464.32,204.12,464.32,252.79Z" style="fill:#92E3A9"></path><path d="M464.32,252.79c0,48.67-28.79,88.13-64.31,88.13s-64.31-39.46-64.31-88.13,28.79-216,64.31-216S464.32,204.12,464.32,252.79Z" style="fill:#fff;opacity:0.5"></path><polygon points="365.27 257.17 385.78 264.32 395.95 278.13 394.17 320.42 382.35 312.4 393.8 329.18 392.09 452.87 405.04 453.54 402.01 297.03 436.07 278.25 416.6 285.46 420.51 273.74 411.2 287.45 401.9 290.89 401.24 252.4 435.07 207.45 416.94 225.58 420 212.98 411.33 231.19 401.05 241.47 400.01 181.33 396.33 269.04 364.27 235.07 381.88 259.01 365.27 257.17" style="fill:#b2b2b2"></polygon><path d="M435.39,181.52s.6,5.91-2.63,10.25-9.06,5.46-9.06,5.46-.6-5.91,2.63-10.25S435.39,181.52,435.39,181.52Z" style="fill:#fff"></path><path d="M454.78,208.76s.59,5.9-2.64,10.24-9.06,5.46-9.06,5.46-.59-5.9,2.64-10.24S454.78,208.76,454.78,208.76Z" style="fill:#fff"></path><path d="M454.77,261.78s-1.43,5.76-5.93,8.76-10.37,2.09-10.37,2.09,1.43-5.76,5.93-8.76S454.77,261.78,454.77,261.78Z" style="fill:#fff"></path><path d="M348.32,261.78s1.42,5.76,5.93,8.76,10.37,2.09,10.37,2.09-1.43-5.76-5.93-8.76S348.32,261.78,348.32,261.78Z" style="fill:#fff"></path><path d="M432.38,239.77s.6,5.91-2.63,10.25-9.07,5.46-9.07,5.46-.59-5.91,2.64-10.25S432.38,239.77,432.38,239.77Z" style="fill:#fff"></path><path d="M427.36,151.9s.59,5.9-2.64,10.24-9.06,5.46-9.06,5.46-.59-5.9,2.64-10.24S427.36,151.9,427.36,151.9Z" style="fill:#fff"></path><path d="M415.81,174.49s.59,5.91-2.63,10.25-9.07,5.46-9.07,5.46-.59-5.91,2.64-10.25S415.81,174.49,415.81,174.49Z" style="fill:#fff"></path><path d="M443.23,158s.59,5.91-2.64,10.25-9.06,5.46-9.06,5.46-.59-5.91,2.64-10.25S443.23,158,443.23,158Z" style="fill:#fff"></path><path d="M354.13,158s-.59,5.91,2.64,10.25,9.06,5.46,9.06,5.46.59-5.91-2.64-10.25S354.13,158,354.13,158Z" style="fill:#fff"></path><path d="M429.87,124.28s.59,5.91-2.64,10.24-9.06,5.47-9.06,5.47-.59-5.91,2.64-10.25S429.87,124.28,429.87,124.28Z" style="fill:#fff"></path><path d="M424.19,94.94s2.06,5.57,0,10.58-7.4,7.56-7.4,7.56-2.06-5.57,0-10.58S424.19,94.94,424.19,94.94Z" style="fill:#fff"></path><path d="M383.53,87.28s5.26,2.75,7.1,7.83-.43,10.58-.43,10.58-5.26-2.76-7.1-7.84S383.53,87.28,383.53,87.28Z" style="fill:#fff"></path><path d="M402.49,122.36s3.75,4.6,3.44,10-4.56,9.55-4.56,9.55-3.75-4.61-3.44-10S402.49,122.36,402.49,122.36Z" style="fill:#fff"></path><path d="M401.49,70.13s3.74,4.61,3.43,10-4.56,9.55-4.56,9.55-3.75-4.61-3.44-10S401.49,70.13,401.49,70.13Z" style="fill:#fff"></path><path d="M358.92,181.52s-.59,5.91,2.64,10.25,9.06,5.46,9.06,5.46.59-5.91-2.64-10.25S358.92,181.52,358.92,181.52Z" style="fill:#fff"></path><path d="M347.88,213.66s-.6,5.91,2.63,10.24,9.06,5.47,9.06,5.47.6-5.91-2.63-10.25S347.88,213.66,347.88,213.66Z" style="fill:#fff"></path><path d="M377.2,225.33s-.6,5.91,2.63,10.24,9.06,5.46,9.06,5.46.6-5.9-2.63-10.24S377.2,225.33,377.2,225.33Z" style="fill:#fff"></path><path d="M385.22,180.8s-2.27,5.49-.41,10.57,7.11,7.83,7.11,7.83,2.27-5.49.41-10.58S385.22,180.8,385.22,180.8Z" style="fill:#fff"></path><path d="M364.45,299.29s5.94.11,10-3.47,4.7-9.48,4.7-9.48-5.94-.1-10,3.47S364.45,299.29,364.45,299.29Z" style="fill:#fff"></path><path d="M421.43,292.79s1.61,5.72,6.2,8.57,10.44,1.76,10.44,1.76-1.62-5.72-6.21-8.57S421.43,292.79,421.43,292.79Z" style="fill:#fff"></path><path d="M371.08,151.9s-.6,5.9,2.63,10.24,9.06,5.46,9.06,5.46.6-5.9-2.63-10.24S371.08,151.9,371.08,151.9Z" style="fill:#fff"></path><path d="M371,125.78s-.59,5.91,2.64,10.25,9.06,5.46,9.06,5.46.59-5.91-2.64-10.24S371,125.78,371,125.78Z" style="fill:#fff"></path><path d="M271.75,307.31c0,35.46-21,64.2-46.84,64.2s-46.85-28.74-46.85-64.2S199,150,224.91,150,271.75,271.86,271.75,307.31Z" style="fill:#92E3A9"></path><path d="M271.75,307.31c0,35.46-21,64.2-46.84,64.2s-46.85-28.74-46.85-64.2S199,150,224.91,150,271.75,271.86,271.75,307.31Z" style="fill:#fff;opacity:0.5"></path><polygon points="199.6 310.5 214.54 315.71 221.94 325.77 220.65 356.58 212.04 350.73 220.38 362.95 219.14 453.06 228.57 453.54 226.36 339.54 251.17 325.86 236.99 331.11 239.84 322.57 233.05 332.56 226.28 335.07 225.8 307.03 250.44 274.29 237.24 287.5 239.47 278.31 233.15 291.58 225.66 299.07 224.91 255.26 222.22 319.15 198.87 294.41 211.7 311.85 199.6 310.5" style="fill:#b2b2b2"></polygon><path d="M250.68,255.4a10.16,10.16,0,0,1-8.52,11.44,10.18,10.18,0,0,1,8.52-11.44Z" style="fill:#fff"></path><path d="M264.8,275.24a10.18,10.18,0,0,1-8.52,11.44,10.18,10.18,0,0,1,8.52-11.44Z" style="fill:#fff"></path><path d="M264.79,313.86a10.19,10.19,0,0,1-11.87,7.91,10.19,10.19,0,0,1,11.87-7.91Z" style="fill:#fff"></path><path d="M187.25,313.86a10.19,10.19,0,0,0,11.87,7.91,10.19,10.19,0,0,0-11.87-7.91Z" style="fill:#fff"></path><path d="M248.48,297.83A10.18,10.18,0,0,1,240,309.27a10.16,10.16,0,0,1,8.51-11.44Z" style="fill:#fff"></path><path d="M244.83,233.82a10.18,10.18,0,0,1-8.52,11.45,10.18,10.18,0,0,1,8.52-11.45Z" style="fill:#fff"></path><path d="M236.41,250.28a10.17,10.17,0,0,1-8.51,11.44,10.16,10.16,0,0,1,8.51-11.44Z" style="fill:#fff"></path><path d="M256.38,238.3a10.16,10.16,0,0,1-8.51,11.44,10.18,10.18,0,0,1,8.51-11.44Z" style="fill:#fff"></path><path d="M191.49,238.3A10.18,10.18,0,0,0,200,249.74a10.18,10.18,0,0,0-8.52-11.44Z" style="fill:#fff"></path><path d="M246.66,213.71a10.18,10.18,0,0,1-8.52,11.44,10.18,10.18,0,0,1,8.52-11.44Z" style="fill:#fff"></path><path d="M242.52,192.34a10.17,10.17,0,0,1-5.37,13.21,10.17,10.17,0,0,1,5.37-13.21Z" style="fill:#fff"></path><path d="M212.9,186.75a10.18,10.18,0,0,1,4.86,13.41,10.18,10.18,0,0,1-4.86-13.41Z" style="fill:#fff"></path><path d="M226.71,212.31a10.16,10.16,0,0,1-.82,14.24,10.18,10.18,0,0,1,.82-14.24Z" style="fill:#fff"></path><path d="M226,174.27a10.18,10.18,0,0,1-.82,14.24,10.18,10.18,0,0,1,.82-14.24Z" style="fill:#fff"></path><path d="M195,255.4a10.16,10.16,0,0,0,8.52,11.44A10.18,10.18,0,0,0,195,255.4Z" style="fill:#fff"></path><path d="M186.93,278.81a10.18,10.18,0,0,0,8.52,11.44,10.18,10.18,0,0,0-8.52-11.44Z" style="fill:#fff"></path><path d="M208.29,287.31a10.18,10.18,0,0,0,8.52,11.44,10.18,10.18,0,0,0-8.52-11.44Z" style="fill:#fff"></path><path d="M214.13,254.88a10.17,10.17,0,0,0,4.89,13.4,10.19,10.19,0,0,0-4.89-13.4Z" style="fill:#fff"></path><path d="M199,341.18a10.16,10.16,0,0,0,10.71-9.42A10.18,10.18,0,0,0,199,341.18Z" style="fill:#fff"></path><path d="M240.5,336.45A10.18,10.18,0,0,0,252.62,344a10.17,10.17,0,0,0-12.12-7.52Z" style="fill:#fff"></path><path d="M203.83,233.82a10.18,10.18,0,0,0,8.52,11.45,10.18,10.18,0,0,0-8.52-11.45Z" style="fill:#fff"></path><path d="M203.76,214.8a10.16,10.16,0,0,0,8.51,11.45,10.16,10.16,0,0,0-8.51-11.45Z" style="fill:#fff"></path></g><g id="freepik--Plants--inject-122"><path d="M101.65,406.07c-3.55.58-8.53,3.47-10.74,4.92a60,60,0,0,0-6,2.12c1.87-1.65,6.93-6.16,6-10.58-1.42-5.72-8.07-1.06-7.92,3.66,0,3.88-.47,6.81-1.13,8.25a64.47,64.47,0,0,0-6.32,3.47c1.52-1.88,5.8-7.22,4.15-11.47-2.35-5.39-8,.29-7.11,4.91.64,3.85.69,6.81.28,8.34a62.53,62.53,0,0,0-5.66,4.48c1.16-2.06,4.54-8.09,2.18-12-3.22-4.92-7.87,1.61-6.18,6,1.28,3.69,1.83,6.61,1.67,8.18A63.09,63.09,0,0,0,60,431.7c.81-2.26,3.13-8.76.16-12.23-4-4.32-7.51,2.92-5.11,7,1.87,3.42,2.89,6.21,3,7.8a62.37,62.37,0,0,0-3.89,6.1,27.64,27.64,0,0,0,.52-6c1-1.78,1-3.53-.82-4a5.81,5.81,0,0,0-1.58-2.15,4.56,4.56,0,0,0-1-.63c3.33-2.2,4.78-6.05-.43-6.06-4.66-.16-6.89,5.48-7.54,8a61.22,61.22,0,0,1-.57-6.76c1-1.22,3.5-2.73,7.09-3.68,4.28-1.29,7.32-5.46,1.69-6.42-4.56-.94-7.7,4.22-8.77,6.62a60.48,60.48,0,0,1,.56-6.72c1.2-1,3.9-2.1,7.61-2.44,4.43-.56,8.13-4.17,2.74-6.07-4.37-1.7-8.36,3-9.79,5.13a59.85,59.85,0,0,1,1.68-6.58c1.35-.82,4.21-1.45,7.94-1.17,4.47.19,8.74-2.79,3.75-5.57-4-2.42-8.81,1.6-10.57,3.5a60.33,60.33,0,0,1,2.57-5.83c1.81-1.75,5.21-4.89,6.73-6.12,2-1.91,3.84-4.62,2.93-6.48s-4.48-2.79-7,1.21c-2,3-3.26,8.61-3.7,11.22a59.57,59.57,0,0,0-2.56,5.87c.06-2.5.2-9.28-3.64-11.64-5.15-2.85-6.26,5.19-2.7,8.3,2.82,2.66,4.67,5,5.28,6.44a58.59,58.59,0,0,0-1.76,7c-.35-2.39-1.35-9.16-5.58-10.85-5.56-1.94-5.28,6.1-1.25,8.56,3.26,2.15,5.47,4.13,6.3,5.47a64.08,64.08,0,0,0-.56,7.2C41,417.54,38.91,411,34.42,410c-5.8-1-4.18,6.86.2,8.62,3.58,1.58,6.09,3.16,7.14,4.35a62.11,62.11,0,0,0,.63,7.19c-1.11-2.13-4.29-8.26-8.86-8.44-5.89,0-3,7.49,1.64,8.5,3.79,1,6.53,2.11,7.76,3.11a63.14,63.14,0,0,0,1.82,7c-1.5-2-5.65-7.43-10.13-6.85-5.8,1-1.65,7.95,3.08,8.19,3.86.32,6.75,1,8.16,1.78a61.38,61.38,0,0,0,3.6,7.72.49.49,0,0,0,.28.61h0a.5.5,0,0,0,.62-.31,61.48,61.48,0,0,1,3.16-7.78c1.47-.64,4.4-.87,8.07,0,4.41.81,9.07-1.5,4.54-5-3.63-3-8.92.27-11,1.91a61.94,61.94,0,0,1,3.74-5.82c1.56-.35,4.45-.06,7.89,1.37,4.19,1.57,9.15.11,5.27-4.09-3-3.53-8.7-1.32-11-.06a60.17,60.17,0,0,1,4.57-5c1.58-.08,4.37.71,7.51,2.69,3.86,2.26,9,1.65,5.86-3.14-2.42-4-8.33-2.76-10.83-1.91a62.38,62.38,0,0,1,5.31-4.17c1.58.19,4.2,1.43,7,3.92,3.43,2.87,8.59,3.12,6.31-2.13-1.73-4.35-7.85-4.1-10.42-3.68a60.27,60.27,0,0,1,6-3.24c1.52.43,3.92,2.09,6.26,5,2.9,3.4,8,4.5,6.63-1.05-1-4.62-7.16-5.37-9.76-5.37a60.42,60.42,0,0,1,6-2.08c2.51.13,7.13.49,9.06.76,2.75.17,6-.32,6.74-2.26S106.27,405.18,101.65,406.07ZM47.36,429.81a7.28,7.28,0,0,0-.1,3.94,15.55,15.55,0,0,0-1.66,6,62.87,62.87,0,0,1-1.72-6.71A11.09,11.09,0,0,1,47.36,429.81Zm2.54,20.11a59.76,59.76,0,0,1-3.13-6.82,11.93,11.93,0,0,1,3.51-4.46,16.85,16.85,0,0,1,2.39,4.65A60.19,60.19,0,0,0,49.9,449.92Z" style="fill:#263238"></path><path d="M473.94,397.44c-4.22.69-10.13,4.13-12.76,5.85a74.4,74.4,0,0,0-7.18,2.52c2.23-2,8.24-7.33,7.19-12.58-1.69-6.79-9.59-1.26-9.41,4.36,0,4.61-.56,8.08-1.34,9.8a73.08,73.08,0,0,0-7.52,4.13c1.81-2.25,6.9-8.59,4.94-13.64-2.8-6.41-9.58.34-8.46,5.84.76,4.57.83,8.1.34,9.91A73.57,73.57,0,0,0,433,419c1.38-2.46,5.4-9.62,2.6-14.31-3.83-5.84-9.36,1.92-7.35,7.16,1.52,4.39,2.17,7.86,2,9.73a75.44,75.44,0,0,0-5.76,6.36c1-2.68,3.72-10.41.19-14.54-4.76-5.12-8.93,3.48-6.07,8.31,2.22,4.08,3.44,7.39,3.56,9.28a73.56,73.56,0,0,0-4.62,7.25,33.65,33.65,0,0,0,.62-7.1c1.22-2.13,1.2-4.21-1-4.72a6.84,6.84,0,0,0-1.87-2.55,6.15,6.15,0,0,0-1.25-.76c3.95-2.61,5.68-7.18-.52-7.19-5.53-.2-8.18,6.51-9,9.55a72.23,72.23,0,0,1-.67-8c1.21-1.44,4.16-3.23,8.43-4.36,5.09-1.54,8.7-6.49,2-7.64-5.42-1.11-9.15,5-10.43,7.87a73.78,73.78,0,0,1,.67-8c1.43-1.22,4.64-2.5,9-2.9,5.28-.66,9.67-5,3.26-7.21-5.2-2-9.93,3.51-11.64,6.09a70.62,70.62,0,0,1,2-7.82c1.6-1,5-1.72,9.44-1.38,5.31.23,10.39-3.32,4.45-6.63-4.81-2.87-10.47,1.9-12.56,4.16a73.25,73.25,0,0,1,3.05-6.93c2.15-2.08,6.2-5.81,8-7.27,2.37-2.27,4.57-5.49,3.48-7.7s-5.32-3.31-8.28,1.44c-2.37,3.56-3.87,10.24-4.4,13.33a70.48,70.48,0,0,0-3,7c.07-3,.23-11-4.33-13.83-6.12-3.39-7.44,6.17-3.21,9.86,3.36,3.16,5.55,5.91,6.27,7.65a72.83,72.83,0,0,0-2.09,8.32c-.41-2.85-1.6-10.9-6.63-12.9-6.6-2.31-6.27,7.25-1.48,10.17,3.87,2.56,6.5,4.91,7.49,6.5a74.4,74.4,0,0,0-.67,8.56c-.87-2.68-3.38-10.51-8.72-11.64-6.89-1.17-5,8.16.25,10.25,4.25,1.88,7.24,3.76,8.48,5.17a72.19,72.19,0,0,0,.75,8.55c-1.32-2.54-5.1-9.82-10.53-10-7,0-3.53,8.9,1.95,10.1,4.5,1.14,7.76,2.51,9.23,3.69a73.31,73.31,0,0,0,2.16,8.33c-1.79-2.38-6.72-8.84-12.05-8.14-6.89,1.16-2,9.44,3.67,9.72,4.59.39,8,1.2,9.7,2.13a71.82,71.82,0,0,0,4.27,9.17.59.59,0,0,0,.34.72l0,0a.58.58,0,0,0,.73-.38,70.94,70.94,0,0,1,3.76-9.24c1.74-.76,5.23-1,9.59-.06,5.24,1,10.78-1.78,5.39-5.92-4.31-3.57-10.6.32-13,2.28a75.62,75.62,0,0,1,4.45-6.93c1.85-.41,5.29-.06,9.38,1.63,5,1.87,10.88.13,6.26-4.86-3.63-4.19-10.34-1.56-13.1-.07a72.94,72.94,0,0,1,5.43-6c1.89-.09,5.21.85,8.94,3.2,4.59,2.69,10.67,2,7-3.72-2.88-4.74-9.91-3.29-12.87-2.29a75.49,75.49,0,0,1,6.31-5c1.87.23,5,1.7,8.28,4.66,4.07,3.41,10.21,3.71,7.5-2.52-2.06-5.18-9.33-4.89-12.38-4.38a71.31,71.31,0,0,1,7.09-3.86c1.81.52,4.66,2.49,7.44,6,3.45,4,9.5,5.35,7.89-1.25-1.17-5.48-8.52-6.38-11.6-6.37a70.35,70.35,0,0,1,7.16-2.48c3,.16,8.47.59,10.76.91,3.28.19,7.14-.39,8-2.69S479.44,396.38,473.94,397.44Zm-64.52,28.22a8.74,8.74,0,0,0-.12,4.69,18.3,18.3,0,0,0-2,7.16,71.85,71.85,0,0,1-2.05-8A13.29,13.29,0,0,1,409.42,425.66Zm3,23.9a72.07,72.07,0,0,1-3.71-8.11,14,14,0,0,1,4.17-5.29,19.24,19.24,0,0,1,2.83,5.53A73.72,73.72,0,0,0,412.43,449.56Z" style="fill:#263238"></path><path d="M209.48,416.1c2.77.45,6.65,2.71,8.38,3.84a48,48,0,0,1,4.72,1.66c-1.47-1.29-5.42-4.81-4.73-8.27,1.11-4.45,6.3-.82,6.19,2.87a18.1,18.1,0,0,0,.87,6.44,47.22,47.22,0,0,1,4.94,2.71c-1.18-1.47-4.52-5.64-3.24-9,1.84-4.21,6.29.22,5.56,3.83a18,18,0,0,0-.23,6.51,50,50,0,0,1,4.42,3.51c-.9-1.62-3.54-6.33-1.7-9.4,2.51-3.84,6.15,1.26,4.82,4.7a18,18,0,0,0-1.3,6.39,49.84,49.84,0,0,1,3.78,4.18c-.63-1.76-2.44-6.84-.12-9.55,3.12-3.37,5.86,2.28,4,5.46a18.16,18.16,0,0,0-2.34,6.09,48,48,0,0,1,3,4.76,21.94,21.94,0,0,1-.41-4.66c-.8-1.4-.79-2.76.64-3.1a4.66,4.66,0,0,1,1.24-1.68,4,4,0,0,1,.82-.49c-2.6-1.72-3.73-4.72.33-4.73,3.64-.13,5.38,4.28,5.89,6.28a46.79,46.79,0,0,0,.44-5.28,11.43,11.43,0,0,0-5.53-2.87c-3.35-1-5.72-4.26-1.32-5,3.56-.73,6,3.3,6.85,5.18a46.44,46.44,0,0,0-.44-5.26,11.53,11.53,0,0,0-5.94-1.9c-3.46-.43-6.35-3.26-2.14-4.74,3.42-1.32,6.52,2.31,7.65,4a48.25,48.25,0,0,0-1.32-5.13,11.41,11.41,0,0,0-6.2-.91c-3.49.15-6.82-2.18-2.93-4.35,3.17-1.89,6.88,1.25,8.26,2.73a47.26,47.26,0,0,0-2-4.55c-1.41-1.37-4.07-3.82-5.25-4.78-1.56-1.49-3-3.61-2.29-5.06s3.49-2.17,5.44.95c1.56,2.34,2.54,6.72,2.89,8.75a46.5,46.5,0,0,1,2,4.59c-.05-1.95-.16-7.24,2.84-9.09,4-2.22,4.89,4.06,2.11,6.48a18.14,18.14,0,0,0-4.12,5,49.53,49.53,0,0,1,1.37,5.46c.27-1.87,1.06-7.15,4.36-8.47,4.33-1.52,4.12,4.76,1,6.68a17.86,17.86,0,0,0-4.92,4.27,48,48,0,0,1,.44,5.62c.57-1.76,2.22-6.9,5.73-7.65,4.52-.77,3.26,5.37-.16,6.74a17.73,17.73,0,0,0-5.57,3.39,48.08,48.08,0,0,1-.5,5.62c.87-1.67,3.35-6.45,6.92-6.59,4.59,0,2.32,5.85-1.28,6.63a17.94,17.94,0,0,0-6.06,2.43,49.37,49.37,0,0,1-1.42,5.47c1.17-1.56,4.41-5.81,7.91-5.35,4.53.77,1.29,6.21-2.41,6.39a18,18,0,0,0-6.37,1.4,46.27,46.27,0,0,1-2.81,6,.39.39,0,0,1-.22.48h0a.4.4,0,0,1-.49-.25,47.28,47.28,0,0,0-2.46-6.07,11.26,11.26,0,0,0-6.3,0c-3.45.64-7.09-1.17-3.55-3.89,2.84-2.34,7,.21,8.57,1.5a48.88,48.88,0,0,0-2.92-4.55,11.39,11.39,0,0,0-6.16,1.07c-3.28,1.23-7.15.08-4.11-3.19,2.38-2.76,6.79-1,8.6-.05a49.09,49.09,0,0,0-3.57-3.92,11.57,11.57,0,0,0-5.87,2.11c-3,1.76-7,1.29-4.57-2.45,1.89-3.11,6.51-2.16,8.45-1.5a48.11,48.11,0,0,0-4.14-3.25,11.5,11.5,0,0,0-5.44,3.06c-2.68,2.24-6.71,2.43-4.93-1.66,1.35-3.4,6.13-3.21,8.13-2.88a47.42,47.42,0,0,0-4.65-2.53,11.4,11.4,0,0,0-4.89,3.93c-2.26,2.65-6.24,3.51-5.18-.82.77-3.6,5.59-4.19,7.62-4.19a47.41,47.41,0,0,0-4.7-1.63c-2,.11-5.57.39-7.08.6-2.15.13-4.68-.25-5.26-1.76S205.86,415.41,209.48,416.1Zm42.38,18.54a5.72,5.72,0,0,1,.08,3.08,12.1,12.1,0,0,1,1.29,4.7,47.38,47.38,0,0,0,1.35-5.24A8.68,8.68,0,0,0,251.86,434.64Zm-2,15.7a47.29,47.29,0,0,0,2.44-5.33,9.27,9.27,0,0,0-2.74-3.48,12.75,12.75,0,0,0-1.86,3.63A47.11,47.11,0,0,1,249.88,450.34Z" style="fill:#263238"></path></g><g id="freepik--rabbit-2--inject-122"><path d="M282.75,199.76s8.36-35.28,17.45-46.56,13.46-5.82,14.92,3.64,0,17.82-6.19,28.73-17.09,17.83-17.09,17.83Z" style="fill:#fff"></path><path d="M291.84,203.9a.65.65,0,0,1-.19,0l-9.09-3.64a.5.5,0,0,1-.3-.58c.34-1.44,8.49-35.52,17.55-46.75,4-5,7.45-7.1,10.22-6.36s4.67,4.28,5.58,10.23c1.55,10.08-.26,18.5-6.24,29.06-6.17,10.89-17.15,17.93-17.26,18A.53.53,0,0,1,291.84,203.9Zm-8.51-4.45,8.45,3.38c1.55-1,11.14-7.66,16.72-17.5,5.86-10.35,7.64-18.58,6.12-28.42-.84-5.45-2.56-8.8-4.85-9.41s-5.5,1.45-9.18,6C292.21,163.91,284.31,195.44,283.33,199.45Z" style="fill:#263238"></path><path d="M268.52,336.74s-8.77,15.1-9.48,21.07-1.05,23.52,3.16,26.68,7-2.81,8.78-6.32S272.73,361,272.73,361s4.92-7.72,6.32-9.82S274.84,333.23,268.52,336.74Z" style="fill:#fff"></path><path d="M264.54,385.88a4.41,4.41,0,0,1-2.64-1c-4.53-3.41-4-21.35-3.35-27.14.7-6,9.18-20.64,9.54-21.26a.5.5,0,0,1,.19-.19c2.08-1.15,4.28-.55,6.39,1.72,3.43,3.73,6,11.63,4.8,13.39-1.29,1.94-5.6,8.7-6.24,9.7,0,1.57-.09,13.86-1.8,17.28l-.15.3c-1.36,2.73-3.22,6.45-5.93,7.09A3.21,3.21,0,0,1,264.54,385.88Zm4.34-48.76c-.83,1.44-8.69,15.23-9.34,20.74-.74,6.28-.94,23.3,3,26.22a3.09,3.09,0,0,0,2.62.73c2.25-.53,4.06-4.16,5.26-6.56l.15-.31c1.68-3.36,1.7-16.84,1.7-17a.5.5,0,0,1,.08-.26c.05-.08,4.94-7.76,6.33-9.84.68-1-1.14-8.29-4.71-12.16C272.19,336.82,270.5,336.29,268.88,337.12Z" style="fill:#263238"></path><path d="M404.84,422s7.32-10.33,12.05-6,4.31,20.66.43,28-22.39,6-22.82,3S404.84,422,404.84,422Z" style="fill:#fff"></path><path d="M403.29,449.89a27.23,27.23,0,0,1-4.71-.38c-2-.34-4.37-1-4.57-2.44-.44-3.08,9.27-23,10.38-25.27l0-.06c.19-.28,4.84-6.78,9.31-7.26a4.28,4.28,0,0,1,3.49,1.15c4.9,4.46,4.5,21.1.53,28.59C415.56,448.37,409,449.89,403.29,449.89Zm2-27.61c-4.3,8.77-10.57,22.55-10.27,24.65,0,.33.89,1.1,3.76,1.6,6,1,15.61,0,18.12-4.78,3.73-7.06,4.22-23.25-.32-27.38a3.28,3.28,0,0,0-2.71-.9C410,415.89,405.62,421.8,405.27,422.28Z" style="fill:#263238"></path><path d="M291.11,196.85s-17.82-1.82-32.37,3.27-34.06,22.81-33.83,32.37c.15,6,2.77,12.43,10.19,17.1,5,3.15,17.09,4.36,22.55,8.73s4.36,18.91,1.09,24.37-9.82,18.91-10.55,30.91,5.46,20.74,6.55,19.28a15.16,15.16,0,0,0,1.82-3.64s-1.09,4.73,1.82,6.55,5.09-1.82,5.09-1.82a10.92,10.92,0,0,0,4.73,8.37c4.72,3.27,11.27,25.46,11.27,27.64s-4,10.19-5.45,22.55,4.32,31.89,13.15,37.91c4.58,3.13,14.63,6,14.63,6s-32.51-1.38-40.88,3.35.73,13.46,11.64,12,53.83,0,53.83,0h64s6.18-2.55,11.64-13.46,5.82-51.28-3.28-85.47-41.1-64.75-55.65-77.11S322,262,318.75,252.5s-7.27-29.46-5.82-36.74,12.74-11.64,20.37-21.46,13.83-40.37,12-48.37-18.55,3.63-29.1,14.18S291.11,196.85,291.11,196.85Z" style="fill:#fff"></path><path d="M270.09,452.49c-6.34,0-11.51-3.19-12.68-6.68-.82-2.45.37-4.79,3.27-6.43,6.8-3.84,28.74-3.73,37.51-3.53-3.37-1.13-8.38-3-11.31-5-9.16-6.26-14.8-26.11-13.36-38.38a89.38,89.38,0,0,1,4.32-18.39A19.8,19.8,0,0,0,279,370c0-2.26-6.54-24.1-11.06-27.23a11.45,11.45,0,0,1-4.81-7.49,4.91,4.91,0,0,1-2.31,1.45,3.42,3.42,0,0,1-2.68-.49,5.24,5.24,0,0,1-2.23-4.21,9.27,9.27,0,0,1-.74,1.17.94.94,0,0,1-1.13.28c-2.24-.82-7-9.19-6.32-19.89.72-11.8,7-25.13,10.62-31.14,3.33-5.56,4.12-19.64-1-23.72-3-2.39-8-3.8-12.84-5.18-3.81-1.08-7.41-2.1-9.67-3.52-8.38-5.27-10.29-12.43-10.42-17.5-.24-10,19.84-27.85,34.16-32.86,13.41-4.69,29.75-3.54,32.26-3.33,1.62-2.88,15.14-26.68,25-36.56,7.42-7.42,21.44-18.54,27.42-16.81a3.53,3.53,0,0,1,2.52,2.86c1.84,8.08-4.39,38.89-12.09,48.8a65.09,65.09,0,0,1-11.05,10.52c-4.53,3.65-8.44,6.81-9.23,10.73-1.42,7.13,2.54,27,5.81,36.47,2.16,6.25,5.8,8.93,12.4,13.81,3.16,2.33,7.09,5.23,11.82,9.26C357.14,287,390,317.86,399.26,352.76c8.87,33.37,9,74.24,3.24,85.83-5.48,11-11.64,13.59-11.9,13.69a.43.43,0,0,1-.19,0h-64c-.44,0-43-1.44-53.76,0A20.07,20.07,0,0,1,270.09,452.49Zm21.41-15.7c-10.24,0-25.15.53-30.33,3.46-2.48,1.4-3.47,3.26-2.81,5.24,1.17,3.49,7.26,6.74,14.13,5.84,10.84-1.45,53.49,0,53.92,0H390.3c.75-.35,6.35-3.28,11.3-13.18,5.72-11.43,5.51-51.95-3.31-85.12-9.21-34.63-41.87-65.29-55.49-76.86-4.71-4-8.62-6.89-11.77-9.22-6.76-5-10.49-7.74-12.75-14.28-3.3-9.53-7.29-29.71-5.84-37,.86-4.27,4.9-7.53,9.59-11.31,3.55-2.87,7.58-6.11,10.88-10.36,7.58-9.74,13.71-40,11.91-48a2.57,2.57,0,0,0-1.82-2.13c-4.8-1.38-17.21,7.33-26.44,16.55-10.38,10.38-24.87,36.37-25,36.63a.52.52,0,0,1-.49.26c-.18,0-17.88-1.75-32.16,3.24-14,4.92-33.73,22.24-33.49,31.89.12,4.83,2,11.65,10,16.69,2.14,1.34,5.68,2.34,9.41,3.4,4.94,1.4,10,2.85,13.19,5.36,5.89,4.71,4.42,19.66,1.21,25-3.56,5.94-9.78,19.08-10.48,30.69-.54,8.87,2.71,15.91,4.89,18.26.57.63.84.65.84.65a15.38,15.38,0,0,0,1.66-3.45.5.5,0,0,1,.61-.33.51.51,0,0,1,.35.6s-1,4.4,1.6,6a2.46,2.46,0,0,0,1.92.37,4.91,4.91,0,0,0,2.48-2,.49.49,0,0,1,.56-.23.5.5,0,0,1,.37.48,10.53,10.53,0,0,0,4.51,8C273.36,345.3,280,367.63,280,370a19.24,19.24,0,0,1-1.18,4.42,88.81,88.81,0,0,0-4.28,18.19c-1.41,12,4.05,31.37,12.94,37.44,4.46,3.05,14.39,5.93,14.49,6a.5.5,0,0,1,.35.56.48.48,0,0,1-.51.42C301.66,437,297.34,436.79,291.5,436.79Z" style="fill:#263238"></path><path d="M304.93,204.12s6.19-21.82,12.73-35.28S340.21,145.2,342,147.38s0,18.91-3.63,29.83-14.92,20.73-20.74,24.73S306,207.4,304.93,204.12Z" style="fill:#92E3A9"></path><path d="M308,206.42a5,5,0,0,1-1.56-.22,3,3,0,0,1-1.93-1.92.48.48,0,0,1,0-.29c.06-.22,6.27-22,12.76-35.37,5.72-11.75,18.9-21.44,23.58-22a1.74,1.74,0,0,1,1.63.45c2.05,2.47.06,19.46-3.55,30.3S324,198.18,318,202.35C314.15,205,310.51,206.42,308,206.42Zm-2.49-2.32a1.94,1.94,0,0,0,1.25,1.15c2.15.72,6.34-.74,10.67-3.72,6-4.1,17-13.88,20.54-24.48,3.79-11.36,5.23-27.54,3.73-29.35-.07-.08-.3-.15-.74-.1-3.79.46-17,9.52-22.8,21.46C312,181.73,306,202.12,305.46,204.1Z" style="fill:#263238"></path><path d="M232.72,227.65s-4.54-.73-6.17,2.06,2,5.42,3.36,5.42,4.67-2.81,5.05-4.68S232.72,227.65,232.72,227.65Z" style="fill:#92E3A9"></path><path d="M229.91,235.63a5.43,5.43,0,0,1-3.76-2.67,3.32,3.32,0,0,1,0-3.51c1.78-3,6.48-2.33,6.67-2.29l.09,0c.13,0,3,1.11,2.57,3.37C235,232.64,231.51,235.63,229.91,235.63Zm1.51-7.56c-1.36,0-3.49.28-4.44,1.89a2.33,2.33,0,0,0,0,2.5,4.61,4.61,0,0,0,2.89,2.17c1.05,0,4.23-2.62,4.56-4.27.26-1.31-1.57-2.1-1.88-2.22A9.14,9.14,0,0,0,231.42,228.07Z" style="fill:#263238"></path><ellipse cx="275.99" cy="234.1" rx="18.56" ry="14.4" style="fill:#92E3A9"></ellipse><path d="M242.18,247.6a13.85,13.85,0,0,1-7.64-2.5c-4.67-3.2-5.11-9.67-5.13-9.94a.51.51,0,0,1,.47-.53.5.5,0,0,1,.53.47c0,.06.43,6.26,4.69,9.17,4.09,2.8,9.15,3.13,11.76.76a.49.49,0,0,1,.7,0,.5.5,0,0,1,0,.71A7.88,7.88,0,0,1,242.18,247.6Z" style="fill:#263238"></path><path d="M234.34,248a.59.59,0,0,1-.22,0,.49.49,0,0,1-.22-.67,4.63,4.63,0,0,0,.42-2.55.52.52,0,0,1,.42-.58.5.5,0,0,1,.57.41,5.63,5.63,0,0,1-.52,3.17A.5.5,0,0,1,234.34,248Z" style="fill:#263238"></path><path d="M291,326.11s-17.94,24.67-19.7,29.24-.35,14.39-.35,22.82,4.19,11.66,8,11,6.65-4.16,7.49-11.85c.46-4.32-3.25-14.91-3.25-14.91s13-.7,21.06-3.51,9.83-17.91,8.78-21.77" style="fill:#fff"></path><path d="M278,389.72a6.14,6.14,0,0,1-4-1.47c-2.3-1.92-3.56-5.5-3.56-10.08,0-2.65-.14-5.45-.28-8.16-.29-6-.58-11.62.66-14.84,1.76-4.57,19-28.35,19.77-29.36a.5.5,0,1,1,.81.59c-.18.25-17.93,24.68-19.64,29.13-1.17,3-.89,8.56-.6,14.43.14,2.72.28,5.54.28,8.21,0,4.28,1.14,7.59,3.2,9.31a5.17,5.17,0,0,0,4.26,1.16c4-.72,6.34-4.56,7.08-11.42.45-4.15-3.19-14.58-3.23-14.68a.51.51,0,0,1,.06-.45.51.51,0,0,1,.39-.22c.13,0,13-.73,20.93-3.48,7.6-2.65,9.55-17.14,8.45-21.17a.5.5,0,0,1,1-.26c1.19,4.37-.82,19.49-9.1,22.37-7,2.44-17.78,3.31-20.54,3.5.8,2.36,3.48,10.68,3.06,14.5-.79,7.35-3.45,11.48-7.89,12.29A6,6,0,0,1,278,389.72Z" style="fill:#263238"></path><path d="M346,439.39a.45.45,0,0,1-.2,0c-5.94-2.64-24.7-27.05-24.39-40.43.17-7.31,3.65-14.87,6.54-19.92a.5.5,0,0,1,.68-.19.49.49,0,0,1,.18.68c-2.83,5-6.24,12.36-6.4,19.45-.31,13.08,18,36.92,23.79,39.5a.5.5,0,0,1,.26.66A.52.52,0,0,1,346,439.39Z" style="fill:#263238"></path><path d="M330.42,376.5a.52.52,0,0,1-.29-.09.5.5,0,0,1-.12-.7c1.08-1.55,3.32-4.87,3.33-4.87l.82.56s-2.24,3.33-3.33,4.89A.51.51,0,0,1,330.42,376.5Z" style="fill:#263238"></path><path d="M361,437.71s-30.82,1-35.3,8,7.12,7.82,18.58,8.3,45.49,1,46.16-2.14-10.32-10.28-17-11.72" style="fill:#fff"></path><path d="M364.06,454.83c-10.28,0-19.62-.36-19.83-.37-9.33-.39-17.86-1-19.69-4.56-.65-1.26-.41-2.78.71-4.51,4.57-7.08,34.44-8.13,35.71-8.18a.5.5,0,0,1,0,1c-.3,0-30.61,1.08-34.9,7.72-.93,1.43-1.14,2.58-.66,3.51,1.58,3.05,10.17,3.66,18.84,4,18.07.75,44.83.44,45.65-1.75.56-2.63-10-9.7-16.63-11.12a.49.49,0,0,1-.38-.59.51.51,0,0,1,.59-.39c6.33,1.36,18.19,8.62,17.4,12.32C390.39,454.29,376.54,454.83,364.06,454.83Z" style="fill:#263238"></path><path d="M328,451.29a.49.49,0,0,1-.48-.36c-1.75-6,7.64-8.89,8-9a.49.49,0,0,1,.62.33.5.5,0,0,1-.34.62c-.08,0-8.84,2.72-7.36,7.78a.49.49,0,0,1-.34.62A.34.34,0,0,1,328,451.29Z" style="fill:#263238"></path><path d="M334.3,452.46a.5.5,0,0,1-.45-.28,5.12,5.12,0,0,1-.2-4.3c1.45-3.54,6.57-5.41,6.78-5.49a.5.5,0,0,1,.64.3.49.49,0,0,1-.3.64s-4.92,1.8-6.2,4.93a4.1,4.1,0,0,0,.18,3.48.5.5,0,0,1-.23.67A.44.44,0,0,1,334.3,452.46Z" style="fill:#263238"></path><path d="M260.79,449.43a.5.5,0,0,1-.49-.43c-1.23-8.08,6.86-9.65,6.94-9.67a.51.51,0,0,1,.58.41.5.5,0,0,1-.4.58c-.3.05-7.21,1.41-6.13,8.53a.5.5,0,0,1-.42.57Z" style="fill:#263238"></path><path d="M266.86,451.53a.49.49,0,0,1-.44-.27,6.91,6.91,0,0,1-.53-5.73c1.46-4,6.4-6.08,6.61-6.17a.52.52,0,0,1,.66.27.51.51,0,0,1-.28.66s-4.75,2-6.05,5.59a6,6,0,0,0,.47,4.92.5.5,0,0,1-.21.67A.46.46,0,0,1,266.86,451.53Z" style="fill:#263238"></path><path d="M323.89,440.61a.59.59,0,0,1-.22-.05,56.42,56.42,0,0,1-5.84-3.28.5.5,0,1,1,.54-.84,54.48,54.48,0,0,0,5.74,3.22.5.5,0,0,1,.23.67A.51.51,0,0,1,323.89,440.61Z" style="fill:#263238"></path><path d="M313.85,434.33a.45.45,0,0,1-.31-.11c-20-15.74-22.84-40.74-22.87-41a.5.5,0,0,1,.45-.55.49.49,0,0,1,.55.44c0,.25,2.83,24.85,22.49,40.32a.49.49,0,0,1,.08.7A.48.48,0,0,1,313.85,434.33Z" style="fill:#263238"></path><path d="M278.28,214.49a5.54,5.54,0,1,1-5.54-5.54A5.54,5.54,0,0,1,278.28,214.49Z" style="fill:#263238"></path><path d="M272,212.39a1.27,1.27,0,1,1-1.27-1.28A1.27,1.27,0,0,1,272,212.39Z" style="fill:#fff"></path></g><g id="freepik--rabbit-1--inject-122"><path d="M204.88,401.37c5.2-15.18,8.39-34.76,2.4-49.94s-28.36-29.95-38.75-33.95-28.66,1.6-28.66,1.6S119.39,322.5,101,334.89s-32.2,61.6-32.59,74.78.8,29.33,14.38,36.91a15.21,15.21,0,0,0,8.72,1.84,14.63,14.63,0,0,0,6.62,3.68c8.39,2.39,30.2,1.44,31.16-4.08.73-4.23-4.55-8.74-10.76-11,.9-.29,3.94,1.65,4.55,2.06,6.31,4.31,12,4.48,18.42,7.27s26.38,7.48,37.16,5.48,14.12-9,9.72-11.74-12-5.13-12-5.13S199.69,416.54,204.88,401.37Z" style="fill:#fff"></path><path d="M110,453.83a48.14,48.14,0,0,1-12-1.25,15.28,15.28,0,0,1-6.67-3.64A15.65,15.65,0,0,1,82.55,447c-13.74-7.68-15-24-14.63-37.36.41-13.51,14.23-62.66,32.82-75.19,18.25-12.3,38.84-15.85,39-15.88.69-.22,18.51-5.59,28.93-1.58,10.8,4.16,33.08,19.15,39,34.24,6.9,17.49,1.46,39-2.39,50.28-4.73,13.81-23.86,29.9-27.91,33.2a57.81,57.81,0,0,1,11.21,4.89,4.23,4.23,0,0,1,2,4.51c-.56,2.85-4,6.69-11.93,8.15-10.66,2-30.59-2.51-37.45-5.51a56.44,56.44,0,0,0-7-2.4,55.25,55.25,0,0,1-6.8-2.32c1.69,1.84,2.65,3.93,2.28,6.06a4,4,0,0,1-2,2.57C124.26,452.87,116.85,453.82,110,453.83Zm-18.45-5.91a.48.48,0,0,1,.36.16,14.11,14.11,0,0,0,6.4,3.54c7.24,2.07,23.73,1.48,28.94-1.79a3,3,0,0,0,1.59-1.89c.71-4.09-4.72-8.37-10.45-10.49A.5.5,0,0,1,118,437a.51.51,0,0,1,.34-.47c1.23-.39,4.61,1.87,5,2.13,3.85,2.62,7.43,3.67,11.22,4.78a58.42,58.42,0,0,1,7.12,2.44c6.77,3,26.39,7.39,36.87,5.45,6.95-1.29,10.59-4.62,11.12-7.36a3.19,3.19,0,0,0-1.58-3.47c-4.28-2.73-11.78-5.05-11.86-5.07a.49.49,0,0,1-.34-.39.47.47,0,0,1,.18-.48c.23-.18,23.23-18.46,28.31-33.33,3.07-9,9.44-31.75,2.41-49.58C201,336.8,179,322,168.35,318c-10.1-3.89-28.16,1.55-28.34,1.61s-20.65,3.56-38.72,15.74-32,61.42-32.37,74.39.85,29,14.12,36.46a14.72,14.72,0,0,0,8.45,1.77Z" style="fill:#263238"></path><path d="M88.35,397.42c4.56,11.73,22.82,11.08,28.68,1.95s-10.43-39.76-7.17-54.75c2.19-10.09,11.71-18.15,17.71-22.36A106.51,106.51,0,0,0,101,334.89c-18.37,12.38-32.2,61.6-32.59,74.78s.8,29.33,14.38,36.91a15.21,15.21,0,0,0,8.72,1.84c-7.76-13.38,11.17-17.11,11.17-17.11s-22.16-13-26.72-25.42,7.82-39.76,7.82-39.76S83.79,385.68,88.35,397.42Z" style="fill:#263238"></path><path d="M90.22,449a15.33,15.33,0,0,1-7.67-2c-13.74-7.68-15-24-14.63-37.36.41-13.51,14.23-62.66,32.82-75.19a107.53,107.53,0,0,1,26.68-12.68.49.49,0,0,1,.6.25.5.5,0,0,1-.16.63c-5.6,3.93-15.33,12-17.51,22.06-1.55,7.14,1.41,17.91,4.28,28.32,3.07,11.16,6,21.7,2.82,26.59s-9.84,7.67-16.71,7c-6.18-.62-10.86-3.91-12.85-9-3.62-9.29-4.39-23.57-4.56-29.14-2.75,6.66-10.6,27.19-6.89,37.26,4.44,12.07,26.29,25,26.51,25.16a.53.53,0,0,1,.24.52.51.51,0,0,1-.4.4c-.09,0-9.43,1.93-12,7.58-1.15,2.54-.76,5.49,1.16,8.79a.53.53,0,0,1,0,.49.49.49,0,0,1-.4.26C91.1,449,90.66,449,90.22,449ZM124.7,323.76a105.11,105.11,0,0,0-23.41,11.54c-18,12.12-32,61.42-32.37,74.39s.85,29,14.12,36.46A14.6,14.6,0,0,0,90.7,448c-1.74-3.31-2-6.34-.81-9,2.22-4.9,8.77-7.12,11.5-7.85-4.51-2.78-21.84-14-25.89-25.05-4.58-12.43,7.32-39,7.83-40.14a.5.5,0,0,1,1,.21c0,.19,0,19.6,4.53,31.11,1.85,4.75,6.23,7.81,12,8.39,6.51.65,12.84-2,15.77-6.53s.06-14.85-2.94-25.78c-2.9-10.53-5.9-21.43-4.3-28.81C111.32,335.57,119,328.2,124.7,323.76Z" style="fill:#263238"></path><path d="M201.65,408l-2.88-1.62-14.62,7.17s-6.38,5.85-12.5,8.78-22.07,7.71-39.88,8.51-31.9-8-39.61-10.9S81.6,392.89,81.6,392.89s-4.67,20.56,10.67,32.54c12.26,9.58,20.27,11.79,26.27,11.55.9-.29,6.54,2.83,7,3.37,5,5.36,5.31,6.11,11.7,8.91s30.61,4.53,41.39,2.53,14.12-9,9.72-11.74-12-5.13-12-5.13S194.29,419.69,201.65,408Z" style="fill:#263238"></path><path d="M166.26,453.15c-11.39,0-24.76-1.5-29.18-3.43-6-2.62-6.81-3.52-10.79-7.85l-1.08-1.18c-.56-.58-5.73-3.35-6.54-3.23l-.11,0c-7.59.29-16-3.4-26.6-11.66-15.41-12-10.9-32.83-10.85-33a.5.5,0,0,1,.52-.39.51.51,0,0,1,.47.44c0,.24,2.89,23.85,10.23,26.64,1.61.61,3.46,1.45,5.59,2.43,7.89,3.61,19.79,9.06,33.83,8.44,17.68-.8,33.73-5.61,39.69-8.46s12.31-8.64,12.37-8.69a.25.25,0,0,1,.12-.08l14.62-7.18a.47.47,0,0,1,.46,0l2.88,1.63a.5.5,0,0,1,.18.7c-6.5,10.33-21.32,23.53-24.66,26.45a57.31,57.31,0,0,1,11.25,4.9,4.23,4.23,0,0,1,2,4.51c-.56,2.85-4,6.69-11.93,8.15A73,73,0,0,1,166.26,453.15Zm-47.63-16.68c1.63,0,6.83,3,7.32,3.54l1.08,1.18c3.95,4.3,4.66,5.08,10.45,7.61,6.17,2.7,30.13,4.53,41.1,2.5,6.95-1.29,10.59-4.62,11.12-7.36a3.19,3.19,0,0,0-1.58-3.47c-4.28-2.73-11.78-5.05-11.86-5.07a.51.51,0,0,1-.18-.86c.18-.15,17.46-14.93,24.86-26.36l-2.19-1.24-14.32,7c-.64.58-6.75,6-12.56,8.81-6.27,3-22.12,7.75-40.08,8.55-14.26.66-26.31-4.87-34.28-8.52-2.12-1-4-1.81-5.53-2.41-6.15-2.33-9.24-17-10.37-23.94-.55,6.31-.21,19.84,11,28.58,10.35,8.08,18.59,11.71,25.9,11.44Z" style="fill:#263238"></path><path d="M114.68,453.32a.52.52,0,0,1-.29-.09.5.5,0,0,1-.12-.7c2.59-3.67-2.75-8.64-2.81-8.69a.51.51,0,0,1,0-.71.5.5,0,0,1,.71,0c.25.23,6,5.62,3,10A.54.54,0,0,1,114.68,453.32Z" style="fill:#263238"></path><path d="M124,451.64a.41.41,0,0,1-.16,0,.5.5,0,0,1-.32-.63c2-6-3.6-9.1-3.84-9.23a.5.5,0,0,1,.48-.88c.06,0,6.57,3.63,4.31,10.43A.5.5,0,0,1,124,451.64Z" style="fill:#263238"></path><path d="M164.14,351.83c-5.19,0-24.77-8-31.56-17.17s3.76-22.72,6.56-28.31,2.23-19.63,2.23-19.63-10-4.39-14-7.19A48.25,48.25,0,0,1,113,265.15c-4.79-7.59-8.79-36.74-6-42.74s19.57,6,28.76,14.78,22.37,38.75,22.37,38.75l4.79-.4-.8-3.6,4.4,2s0-5.59,1.59-4.39,2.4,4.39,2.4,4.39l9.19-.8s6.79-12.78,12.78-16.77,37.55-11.19,39.15-8-7.19,4.39-11.19,7.59-9.19,12.78-12.38,21.57-12.78,15.18-12.78,15.18,2.39,10.78,5.59,18,7.19,16,3.59,23.57-18,14-23.16,15.18" style="fill:#fff"></path><path d="M164.14,352.33c-5.24,0-24.95-7.89-32-17.37-5.83-7.89.66-18.83,4.54-25.37.8-1.36,1.5-2.53,2-3.47,2.48-5,2.25-17,2.19-19.07-1.7-.75-10.12-4.55-13.78-7.11a48.7,48.7,0,0,1-14.51-14.52c-4.79-7.58-8.9-37.06-6-43.22a3.16,3.16,0,0,1,2.4-1.82c5.74-1.08,19.34,9,27.15,16.45,8.75,8.37,20.81,35.13,22.34,38.58l3.87-.32-.68-3a.51.51,0,0,1,.7-.56l3.7,1.68c0-1.48.29-3.72,1.24-4.19a1,1,0,0,1,1.14.17c1.38,1,2.19,3.32,2.47,4.26l8.51-.74c1-1.84,7.17-13,12.81-16.72s32.65-10.21,38.61-8.63a1.77,1.77,0,0,1,1.26.83,2,2,0,0,1,.13,1.64c-.56,1.49-2.92,2.46-5.65,3.59a25,25,0,0,0-5.8,3c-3.64,2.91-8.78,11.89-12.22,21.35-2.94,8.09-11,14.07-12.69,15.23.43,1.85,2.66,11.18,5.49,17.55l.12.27c3.17,7.13,7.11,16,3.47,23.71-3.75,7.91-18.34,14.26-23.51,15.45a.49.49,0,0,1-.6-.37.5.5,0,0,1,.37-.6c4.88-1.12,19.28-7.41,22.83-14.91,3.45-7.28-.39-15.93-3.48-22.88l-.12-.27c-3.18-7.15-5.6-18-5.62-18.07a.49.49,0,0,1,.21-.52c.09-.06,9.49-6.41,12.59-14.93,3-8.24,8.27-18.37,12.54-21.79a25.22,25.22,0,0,1,6-3.12c2.3-1,4.69-1.94,5.09-3a1,1,0,0,0-.08-.84s-.11-.18-.62-.32c-5.64-1.5-32.56,5-37.8,8.5-5.82,3.88-12.55,16.47-12.62,16.6a.49.49,0,0,1-.4.26l-9.19.8a.51.51,0,0,1-.52-.38s-.78-3-2.22-4.11c-.08-.07-.12-.07-.12-.07-.34.18-.67,2.12-.67,4.06a.5.5,0,0,1-.23.42.49.49,0,0,1-.48,0l-3.48-1.59.58,2.62a.51.51,0,0,1-.09.41.49.49,0,0,1-.36.2l-4.79.4a.49.49,0,0,1-.5-.3c-.13-.3-13.25-30-22.26-38.59s-21.44-17.1-26.27-16.18a2.18,2.18,0,0,0-1.69,1.25c-2.8,6,1.27,34.84,6,42.27a47.65,47.65,0,0,0,14.25,14.23c3.91,2.74,13.79,7.1,13.89,7.15a.48.48,0,0,1,.3.44c0,.57.53,14.22-2.29,19.86-.48,1-1.19,2.16-2,3.53-3.75,6.32-10,16.91-4.59,24.26,6.58,8.9,25.94,17,31.15,17a.5.5,0,0,1,.5.5A.5.5,0,0,1,164.14,352.33Z" style="fill:#263238"></path><path d="M158.15,275.94s-.6-1.35-1.62-3.56h0l-.35-.75-.11-.24c-.11-.23-.23-.47-.34-.72l-.18-.37c-.11-.24-.22-.48-.34-.72l-.21-.45c-.12-.24-.23-.49-.35-.74s-.17-.34-.25-.51-.24-.51-.37-.77l-.26-.52c-.13-.28-.26-.55-.4-.83l-.25-.5c-.14-.3-.29-.6-.44-.91l-.2-.4c-.17-.35-.35-.69-.53-1.05h0c-4.63-9.22-11-20.78-16.17-25.7-9.19-8.78-26-20.77-28.76-14.78s1.2,35.15,6,42.74a48.25,48.25,0,0,0,14.38,14.38c.46.33,1,.67,1.6,1h0l.93.54,0,0,1,.54,0,0,1,.56h0c2.52,1.32,5.25,2.61,7.1,3.46l.06,0,.68.31.06,0,.56.26h0l.44.2h0l.27.12.06,0,.05,0s.56,14-2.23,19.63c-.78,1.56-2.17,3.73-3.61,6.26,3.13-1.82,7.18-2.55,9.84-8.71,3.72-8.62,1.51-9.51.3-17.57s9.27-10.07,9.27-10.07l.28-.69A23,23,0,0,1,158.15,275.94Z" style="fill:#263238"></path><path d="M135.53,313.11a.52.52,0,0,1-.35-.14.49.49,0,0,1-.08-.6c.56-1,1.11-1.92,1.62-2.78.8-1.36,1.5-2.53,2-3.47,2.48-5,2.25-17,2.19-19.07l-1.86-.84c-1.93-.89-4.67-2.18-7.2-3.51l-1.07-.57-1-.57-1-.56c-.65-.39-1.2-.75-1.65-1.06a48.7,48.7,0,0,1-14.51-14.52c-4.79-7.58-8.9-37.06-6-43.22a3.16,3.16,0,0,1,2.4-1.82c5.74-1.08,19.34,9,27.15,16.45,5.24,5,11.75,16.82,16.28,25.84l4.58,9.49c1,2.22,1.63,3.58,1.63,3.58a.52.52,0,0,1-.07.51.49.49,0,0,1-.49.18,21.24,21.24,0,0,0-2.51-.33l-.14.35a.52.52,0,0,1-.37.3c-.41.08-10,2-8.86,9.5.3,2.06.68,3.63,1,5,1,4.05,1.49,6.28-1.34,12.83-2.2,5.08-5.33,6.6-8.1,7.94-.68.33-1.33.65-1.95,1A.54.54,0,0,1,135.53,313.11ZM109.92,221.3a3.64,3.64,0,0,0-.76.07,2.18,2.18,0,0,0-1.69,1.25c-2.8,6,1.27,34.84,6,42.27a47.65,47.65,0,0,0,14.25,14.23c.42.3.95.64,1.57,1l.93.54,1,.57,1.07.56c2.52,1.33,5.24,2.62,7.09,3.46l2.1,1a.72.72,0,0,1,.41.49c0,.57.53,14.22-2.29,19.86-.48,1-1.19,2.16-2,3.53l-.75,1.27.47-.23c2.73-1.32,5.56-2.69,7.61-7.44,2.7-6.24,2.23-8.23,1.29-12.2-.33-1.4-.71-3-1-5.1-1.16-7.68,7.72-10.18,9.4-10.57l.18-.45a.48.48,0,0,1,.49-.3c.8,0,1.53.13,2.06.21-.28-.61-.69-1.54-1.23-2.7l-4.57-9.47c-4.5-9-10.94-20.65-16.08-25.57C127,229.48,115.21,221.3,109.92,221.3Zm31.34,65.37,0,.06h0Z" style="fill:#263238"></path><path d="M184.51,281.13c.4,5.19-8.39,13.58-7.19,21.57s12.38,4.8,17.18,8.39c4.55,3.41,9.46,12.23,11.31,18.24.61-6.29-2.4-13-4.92-18.64-3.2-7.19-5.59-18-5.59-18s9.58-6.4,12.78-15.18,8.39-18.38,12.38-21.57,12.78-4.4,11.19-7.59-33.16,4-39.15,8-12.78,16.77-12.78,16.77l-9.19.8S184.11,275.94,184.51,281.13Z" style="fill:#263238"></path><path d="M205.81,329.83a.5.5,0,0,1-.48-.35c-1.86-6.06-6.78-14.73-11.13-18-1.72-1.29-4.33-1.65-7.09-2-4.44-.63-9.48-1.35-10.28-6.67-.71-4.7,1.88-9.45,4.15-13.64,1.64-3,3.19-5.87,3-8h0c-.3-3.93-9.88-6.19-13.55-6.73a.51.51,0,0,1-.43-.51.52.52,0,0,1,.46-.49l8.92-.77c1-1.84,7.17-13,12.81-16.72s32.65-10.21,38.61-8.63a1.77,1.77,0,0,1,1.26.83,2,2,0,0,1,.13,1.64c-.56,1.49-2.92,2.46-5.65,3.59a25,25,0,0,0-5.8,3c-3.64,2.91-8.78,11.89-12.22,21.35-2.94,8.09-11,14.07-12.69,15.23.43,1.85,2.66,11.18,5.49,17.55l.08.2c2.58,5.78,5.49,12.34,4.88,18.69a.52.52,0,0,1-.45.45Zm-31.73-55.69c4.17,1,10.64,3.14,10.93,6.95h0c.18,2.4-1.36,5.24-3.15,8.52-2.2,4.06-4.7,8.65-4,13,.68,4.59,4.93,5.19,9.43,5.83,2.77.39,5.63.79,7.55,2.23,4,3,8.26,10,10.56,15.86-.3-5.25-2.69-10.63-4.84-15.46l-.09-.2c-3.18-7.15-5.6-18-5.62-18.07a.49.49,0,0,1,.21-.52c.09-.06,9.49-6.41,12.59-14.93,3-8.24,8.27-18.37,12.54-21.79a25.22,25.22,0,0,1,6-3.12c2.3-1,4.69-1.94,5.09-3a1,1,0,0,0-.08-.84s-.11-.18-.62-.32c-5.64-1.5-32.56,5-37.8,8.5-5.82,3.88-12.55,16.47-12.62,16.6a.49.49,0,0,1-.4.26Z" style="fill:#263238"></path><path d="M145.25,302.16c-.28,3.23-1.24,5.79-2.16,5.71s-1.43-2.76-1.15-6,1.23-5.79,2.15-5.72S145.52,298.92,145.25,302.16Z" style="fill:#263238"></path><path d="M143.13,308.37h-.08c-1.48-.13-1.87-3.48-1.61-6.54a16.34,16.34,0,0,1,.86-4.23c.51-1.34,1.13-2,1.83-1.93s1.2.8,1.47,2.21a16.22,16.22,0,0,1,.14,4.32C145.49,305.2,144.57,308.37,143.13,308.37Zm.91-11.71c-.32,0-1.3,1.71-1.61,5.26s.4,5.36.71,5.45,1.31-1.7,1.61-5.25S144.36,296.75,144,296.66Z" style="fill:#fff"></path><path d="M143.59,300.32c0,.94-.36,1.7-.8,1.7s-.8-.76-.8-1.7.36-1.69.8-1.69S143.59,299.39,143.59,300.32Z" style="fill:#fff"></path><path d="M189.15,302.3c0,3.09-1.13,5.59-2.52,5.59s-2.52-2.5-2.52-5.59,1.13-5.6,2.52-5.6S189.15,299.21,189.15,302.3Z" style="fill:#263238"></path><path d="M186.63,308.39c-1.72,0-3-2.62-3-6.09s1.3-6.1,3-6.1,3,2.62,3,6.1S188.35,308.39,186.63,308.39Zm0-11.19c-.95,0-2,2.18-2,5.1s1.07,5.09,2,5.09,2-2.18,2-5.09S187.58,297.2,186.63,297.2Z" style="fill:#fff"></path><path d="M186.63,300.5c0,1-.4,1.8-.9,1.8s-.9-.81-.9-1.8.41-1.79.9-1.79S186.63,299.51,186.63,300.5Z" style="fill:#fff"></path><path d="M167.74,327.87s2-4-4.4-6-15.18.39-14,5.19,6.79,7.19,10.39,6.79S167.74,327.87,167.74,327.87Z" style="fill:#92E3A9"></path><path d="M159,334.4c-3.65,0-8.87-2.35-10.08-7.21a3.89,3.89,0,0,1,1.24-3.94c2.65-2.5,8.65-3.33,13.37-1.85,2.48.77,4.07,1.94,4.72,3.48a4,4,0,0,1,0,3.21.41.41,0,0,1-.05.09c-.19.23-4.57,5.76-8.33,6.18A7.63,7.63,0,0,1,159,334.4Zm-.47-12.73c-3.11,0-6.11.83-7.68,2.31a2.89,2.89,0,0,0-1,3c1.13,4.52,6.5,6.78,9.84,6.41,3.18-.35,7.19-5.23,7.62-5.76a3.12,3.12,0,0,0,0-2.35c-.54-1.24-1.92-2.22-4.1-2.9A16,16,0,0,0,158.49,321.67Zm9.24,6.2h0Z" style="fill:#263238"></path><path d="M170.25,345.57l-.57,0c-3.24-.36-8.16-4.29-9.51-5.42-1.24,1.16-5.58,4.92-8.59,3.79-3.18-1.19-4.77-2-4.84-2a.5.5,0,0,1,.45-.9s1.62.8,4.74,2c2.38.89,6.48-2.5,7.86-3.88a.5.5,0,0,1,.68,0c.06.05,5.92,5.1,9.32,5.48s6.73-3.4,6.76-3.44a.5.5,0,0,1,.71,0,.49.49,0,0,1,0,.7C177.15,342,173.84,345.57,170.25,345.57Z" style="fill:#263238"></path><path d="M192.5,286.32s-.4-11.18,3.2-16,22-13.58,22-13.58-8.79,11.18-10,14.78-2.4,9.18-7.59,13.18S192.5,286.32,192.5,286.32Z" style="fill:#92E3A9"></path><path d="M194.7,287.54a3.66,3.66,0,0,1-2.55-.86.53.53,0,0,1-.15-.34c0-.46-.36-11.41,3.3-16.29s21.4-13.37,22.15-13.74a.5.5,0,0,1,.61.76c-.09.12-8.75,11.16-9.91,14.63-.14.44-.29.9-.44,1.39-1.11,3.56-2.63,8.43-7.31,12C197.94,287,196.05,287.54,194.7,287.54ZM193,286.08c.56.39,2.7,1.4,6.8-1.75,4.43-3.41,5.9-8.11,7-11.54.15-.49.3-1,.45-1.4.93-2.81,6.22-9.93,8.74-13.22-4.79,2.39-17.06,8.75-19.85,12.48C192.92,274.88,193,284.49,193,286.08Z" style="fill:#263238"></path><path d="M144.57,274.34s.4-14-4.4-22.77-20.37-23.16-25.56-26-5.59-2-5.59,3.19,1.19,25.17,4.79,33.56,14,14,17.18,16,11.58,5.19,11.58,4-2,.4,0-1.2S144.57,274.34,144.57,274.34Z" style="fill:#92E3A9"></path><path d="M142.07,283.07c-2.38,0-9.1-2.9-11.35-4.31l-1.11-.68c-4.2-2.53-13-7.8-16.26-15.52-3.68-8.58-4.83-28.8-4.83-33.76,0-2.72.07-4.41,1.13-5.05s2.62,0,5.2,1.42c5.08,2.74,20.86,17.18,25.76,26.16,4.79,8.78,4.48,22.35,4.46,23,0,.31,0,5.46-2.19,7.17l-.09.07a1,1,0,0,1,.28.74.71.71,0,0,1-.38.63A1.3,1.3,0,0,1,142.07,283.07Zm-31.5-58.55a.86.86,0,0,0-.41.09c-.59.36-.64,2.19-.64,4.19,0,4.91,1.13,24.93,4.75,33.36,3.18,7.43,11.74,12.59,15.86,15.07l1.12.68a42.16,42.16,0,0,0,9.93,4.08c-.1-.31.1-.46,1.08-1.25,1.48-1.18,1.81-5,1.81-6.4h0c0-.14.34-13.95-4.34-22.52-4.82-8.85-20.36-23.07-25.36-25.76A11,11,0,0,0,110.57,224.52Z" style="fill:#263238"></path><ellipse cx="189.39" cy="323.53" rx="12.11" ry="9.65" style="fill:#92E3A9"></ellipse><ellipse cx="140.88" cy="321.44" rx="8.11" ry="8.02" style="fill:#92E3A9"></ellipse><path d="M145,414.07s6.39,15.57,8,20.37,3.19,14.78,6.39,16.77,14.38,2.8,17.17-.4.8-8-1.59-10.38-4.4-3.6-4.8-5.19,3.6-28,3.6-28" style="fill:#fff"></path><path d="M168.53,453.47c-3.81,0-7.75-.77-9.45-1.83-2.51-1.57-4-7.3-5.29-12.36-.46-1.75-.89-3.42-1.31-4.68-1.57-4.73-7.91-20.19-8-20.35a.5.5,0,0,1,.93-.37c.06.15,6.42,15.65,8,20.4.43,1.3.87,3,1.33,4.75,1.19,4.64,2.68,10.4,4.85,11.76,3.22,2,14,2.58,16.54-.3s.65-7.48-1.58-9.71c-.75-.75-1.46-1.38-2.1-1.95-1.46-1.29-2.51-2.23-2.82-3.47-.41-1.62,2.91-23.74,3.58-28.16a.5.5,0,1,1,1,.15c-1.53,10.1-3.86,26.57-3.6,27.77.23.94,1.19,1.79,2.52,3,.64.57,1.37,1.22,2.14,2,2.5,2.5,4.66,7.59,1.62,11.06C175.43,452.82,172,453.47,168.53,453.47Z" style="fill:#263238"></path><path d="M168.71,453.49a.41.41,0,0,1-.16,0,.5.5,0,0,1-.32-.63,6.72,6.72,0,0,0-2.51-7.54.51.51,0,0,1-.14-.7.49.49,0,0,1,.69-.13s4.72,3.24,2.91,8.68A.5.5,0,0,1,168.71,453.49Z" style="fill:#263238"></path><path d="M174.69,451.9a.53.53,0,0,1-.24-.06.49.49,0,0,1-.2-.67c2.22-4.13-2.11-7-2.3-7.09a.5.5,0,0,1-.15-.69.51.51,0,0,1,.7-.15c.05,0,5.28,3.47,2.63,8.4A.49.49,0,0,1,174.69,451.9Z" style="fill:#263238"></path><path d="M179.89,407.62s10.77,28.26,12.45,33.05,2.4,7.67,5.27,9.59,14.62,2.16,16.78,1.44,3.36-4.32.72-8.15-7.91-4.8-8.39-6.24.72-37.87-1.2-44.1" style="fill:#fff"></path><path d="M209.66,452.55c-4.39,0-10.29-.52-12.32-1.88-2.71-1.8-3.61-4.41-5-8.35l-.51-1.48c-1.66-4.74-12.34-32.76-12.44-33a.5.5,0,1,1,.93-.36c.11.28,10.79,28.32,12.45,33.07l.52,1.48c1.33,3.89,2.13,6.24,4.56,7.85,2.74,1.83,14.45,2,16.34,1.38a2.78,2.78,0,0,0,1.66-1.84,6.42,6.42,0,0,0-1.19-5.55c-1.49-2.16-3.93-3.41-5.72-4.32-1.43-.73-2.47-1.25-2.73-2-.17-.51-.17-3.22-.13-10.84.07-11.62.18-29.19-1.07-33.27a.49.49,0,0,1,.33-.63.5.5,0,0,1,.62.33c1.3,4.23,1.19,21.89,1.12,33.58,0,5.14-.06,10,.08,10.53.13.38,1.2.93,2.23,1.45,1.89,1,4.46,2.27,6.09,4.64a7.38,7.38,0,0,1,1.32,6.44,3.76,3.76,0,0,1-2.29,2.47A21,21,0,0,1,209.66,452.55Z" style="fill:#263238"></path><path d="M209.71,452.08a.43.43,0,0,1-.19,0,.51.51,0,0,1-.28-.65c1.59-4-4.14-7.62-4.2-7.66a.5.5,0,0,1,.53-.85c.27.17,6.49,4.15,4.6,8.88A.49.49,0,0,1,209.71,452.08Z" style="fill:#263238"></path><path d="M215.69,450.32h-.07a.5.5,0,0,1-.43-.56c.64-4.61-4.53-6.25-4.75-6.32a.5.5,0,0,1,.29-.95c.06,0,6.21,1.94,5.46,7.41A.51.51,0,0,1,215.69,450.32Z" style="fill:#263238"></path></g><g id="freepik--Floor--inject-122"><polyline points="17.34 457.27 38.14 454.19 32.29 452.55 41.2 451.72 39.29 447.56 45.66 450.06 50.43 447.01 51.7 450.61 55.2 447.56 55.52 451.16 59.66 448.95 60.3 452 73.67 447.56 73.35 450.06 76.85 448.67 83.85 451.16 84.17 448.12 89.58 451.16 89.9 448.95 92.13 450.61 94.68 446.73 98.18 451.72 106.45 447.84 106.45 451.44 111.55 449.5 112.18 451.44 116.64 449.5 121.42 451.44 142.74 448.67 141.79 450.89 146.56 449.78 152.61 449.23 155.16 451.44 157.7 449.5 161.52 451.44 161.84 448.39 165.03 451.44 169.48 447.84 170.44 451.44 179.03 448.39 179.35 451.72 196.22 449.23 194.63 451.44 201 450.89 205.45 452.27 210.23 448.39 217.55 451.44 217.87 449.5 221.69 451.16 223.28 447.84 225.82 451.16 230.92 448.95 231.55 450.89 236.01 449.78 238.24 451.72 246.2 450.61 246.83 452.55 258.61 449.78 259.88 452.27 264.66 448.67 267.52 450.89 268.8 447.29 272.94 450.33 277.71 447.29 276.75 450.89 280.89 448.95 282.49 451.16 287.58 449.5 289.17 451.44 291.72 450.61 294.9 451.44 302.22 448.67 305.4 450.89 307.31 448.67 309.54 450.61 311.13 448.12 314 451.72 318.14 449.23 320.05 451.72 324.19 448.12 325.46 451.44 336.92 449.78 343.92 448.39 342.65 451.44 351.24 449.23 355.06 451.16 356.33 447.84 360.79 450.06 363.02 447.84 365.88 449.78 369.39 448.39 372.25 450.89 379.89 448.39 382.12 450.89 386.89 448.67 387.85 450.89 393.58 449.5 393.9 451.72 398.35 449.23 401.86 450.06 405.04 447.84 406.63 450.06 409.18 447.56 410.13 450.61 417.45 448.67 419.68 450.89 424.77 448.67 427.64 451.16 428.91 448.12 435.6 451.44 434.96 447.56 439.74 450.06 439.74 447.56 442.92 450.33 444.83 446.73 446.1 449.78 448.75 448.25 449.92 447.56 449.6 451.44 455.33 449.23 455.33 451.44 462.65 450.61 460.79 454.19 477.61 455.73" style="fill:#92E3A9"></polyline><path d="M17.34,457.77a.51.51,0,0,1-.5-.43.5.5,0,0,1,.42-.56L35.75,454l-3.6-1a.51.51,0,0,1-.36-.53.49.49,0,0,1,.45-.45l8.21-.76-1.61-3.52a.49.49,0,0,1,.09-.55.48.48,0,0,1,.54-.12l6.13,2.4,4.56-2.91a.47.47,0,0,1,.43,0,.49.49,0,0,1,.31.3l1,2.91,3-2.56a.49.49,0,0,1,.82.33l.26,2.85,3.47-1.86a.5.5,0,0,1,.72.34l.52,2.49,12.84-4.25a.52.52,0,0,1,.48.09.48.48,0,0,1,.17.45L74,449.28l2.72-1.07a.47.47,0,0,1,.35,0l6.4,2.28.26-2.41a.49.49,0,0,1,.26-.4.54.54,0,0,1,.48,0l4.77,2.69.22-1.49a.47.47,0,0,1,.3-.39.48.48,0,0,1,.49.06l1.8,1.34,2.26-3.43a.51.51,0,0,1,.41-.23.47.47,0,0,1,.42.22l3.26,4.64,7.89-3.7a.51.51,0,0,1,.48,0,.48.48,0,0,1,.23.42v2.87l4.42-1.67a.49.49,0,0,1,.65.31l.47,1.41,4-1.72a.53.53,0,0,1,.39,0l4.65,1.89,21.2-2.76a.51.51,0,0,1,.46.2.5.5,0,0,1,.06.5l-.56,1.31,3.81-.89,6.11-.56a.5.5,0,0,1,.38.12l2.24,1.95,2.22-1.7a.51.51,0,0,1,.53,0l3.17,1.61.25-2.33a.49.49,0,0,1,.32-.42.52.52,0,0,1,.52.11l2.86,2.75,4.12-3.33a.5.5,0,0,1,.47-.09.55.55,0,0,1,.33.35l.81,3.08,8.08-2.87a.52.52,0,0,1,.44.05.51.51,0,0,1,.23.38l.27,2.8,16.35-2.42a.52.52,0,0,1,.5.23.54.54,0,0,1,0,.56l-1,1.33,5.28-.46a.4.4,0,0,1,.19,0l4.2,1.3,4.57-3.7a.5.5,0,0,1,.51-.08l6.74,2.81.21-1.32a.53.53,0,0,1,.26-.36.52.52,0,0,1,.44,0l3.37,1.47,1.39-2.89a.49.49,0,0,1,.84-.08l2.31,3,4.74-2.06a.47.47,0,0,1,.4,0,.5.5,0,0,1,.27.3l.49,1.5,4-1a.52.52,0,0,1,.45.11l2.06,1.79,7.73-1.07a.5.5,0,0,1,.54.33l.5,1.51,11.33-2.67a.52.52,0,0,1,.56.26l1,2,4.3-3.24a.49.49,0,0,1,.6,0l2.32,1.79,1.05-2.95a.47.47,0,0,1,.32-.31.49.49,0,0,1,.44.07l3.87,2.85,4.48-2.87a.5.5,0,0,1,.56,0,.48.48,0,0,1,.19.53l-.68,2.57,3.17-1.48a.49.49,0,0,1,.62.16l1.38,1.92,4.74-1.55a.48.48,0,0,1,.54.15l1.38,1.68,2.22-.73a.45.45,0,0,1,.28,0l3,.79L302,448.2a.56.56,0,0,1,.47.06l2.81,2,1.62-1.88a.49.49,0,0,1,.34-.17.51.51,0,0,1,.36.12l1.79,1.56,1.28-2a.51.51,0,0,1,.4-.23.48.48,0,0,1,.42.19l2.59,3.25,3.76-2.26a.5.5,0,0,1,.65.12l1.59,2.07,3.74-3.25a.49.49,0,0,1,.45-.11.52.52,0,0,1,.34.31l1.13,2.95,11.07-1.61,7-1.38a.54.54,0,0,1,.49.18.52.52,0,0,1,.07.51l-.88,2.12,7.62-2a.47.47,0,0,1,.35,0l3.32,1.69,1.08-2.81a.5.5,0,0,1,.28-.29.53.53,0,0,1,.41,0l4.13,2.06,2-2a.49.49,0,0,1,.63-.06l2.65,1.79,3.25-1.29a.48.48,0,0,1,.51.09l2.66,2.3,7.37-2.4a.49.49,0,0,1,.52.14l2,2.22,4.43-2.06a.53.53,0,0,1,.39,0,.5.5,0,0,1,.28.27l.79,1.83,5.32-1.28a.51.51,0,0,1,.4.07.48.48,0,0,1,.21.34l.22,1.5,3.82-2.14a.5.5,0,0,1,.36-.05l3.28.78,3-2.09a.49.49,0,0,1,.69.12l1.26,1.74,2.13-2.08a.48.48,0,0,1,.47-.13.49.49,0,0,1,.35.33l.81,2.59,6.86-1.81a.48.48,0,0,1,.48.13l2,2,4.78-2.08a.53.53,0,0,1,.53.08l2.34,2,1-2.41a.51.51,0,0,1,.29-.27.48.48,0,0,1,.39,0l5.82,2.89-.48-2.92a.48.48,0,0,1,.2-.48.49.49,0,0,1,.52,0l4,2.11v-1.67a.5.5,0,0,1,.3-.45.49.49,0,0,1,.53.08l2.71,2.35,1.62-3a.48.48,0,0,1,.46-.27.52.52,0,0,1,.44.31l1,2.52,3.33-1.93a.51.51,0,0,1,.52,0,.5.5,0,0,1,.23.46l-.25,3.09,5-1.93a.5.5,0,0,1,.46.05.5.5,0,0,1,.22.41v1.66l6.77-.77a.5.5,0,0,1,.5.73l-1.52,2.92,16.07,1.47a.5.5,0,0,1-.09,1l-16.82-1.54a.53.53,0,0,1-.39-.26.52.52,0,0,1,0-.47l1.44-2.75-6.39.73a.49.49,0,0,1-.39-.13.48.48,0,0,1-.17-.37V450l-5.05,2a.52.52,0,0,1-.48-.07.53.53,0,0,1-.2-.44l.24-2.92-3,1.73a.49.49,0,0,1-.41,0,.52.52,0,0,1-.3-.28l-.87-2.07-1.41,2.67a.48.48,0,0,1-.35.25.5.5,0,0,1-.42-.11l-2.36-2v1.4a.49.49,0,0,1-.24.42.5.5,0,0,1-.49,0l-3.88-2,.47,2.89a.5.5,0,0,1-.2.48.51.51,0,0,1-.52.05l-6.2-3.09-1.07,2.56a.52.52,0,0,1-.35.29.48.48,0,0,1-.44-.11l-2.63-2.29-4.8,2.09a.47.47,0,0,1-.55-.1l-2-2-7,1.86a.5.5,0,0,1-.61-.33l-.71-2.27-2,1.92a.45.45,0,0,1-.39.14.49.49,0,0,1-.37-.2l-1.3-1.82-2.78,1.94a.51.51,0,0,1-.4.07l-3.31-.78-4.29,2.39a.52.52,0,0,1-.47,0,.53.53,0,0,1-.27-.38l-.24-1.67L388,451.37a.51.51,0,0,1-.58-.29l-.75-1.74-4.31,2a.5.5,0,0,1-.58-.12l-2-2.25-7.33,2.39a.49.49,0,0,1-.49-.1L369.29,449l-3.22,1.27a.49.49,0,0,1-.47-.05l-2.52-1.71-1.94,1.93a.49.49,0,0,1-.57.09l-4-2-1.08,2.81a.49.49,0,0,1-.29.29.53.53,0,0,1-.41,0l-3.65-1.85-8.41,2.16a.49.49,0,0,1-.58-.67l.91-2.18-6.09,1.2-11.48,1.67a.52.52,0,0,1-.54-.32L324,449l-3.59,3.13a.46.46,0,0,1-.38.12.48.48,0,0,1-.35-.19L318,449.88l-3.75,2.27a.51.51,0,0,1-.65-.12l-2.43-3-1.22,1.9a.54.54,0,0,1-.35.23.58.58,0,0,1-.4-.12l-1.84-1.61-1.59,1.83a.49.49,0,0,1-.66.09l-3-2.07-7.07,2.68a.55.55,0,0,1-.31,0l-3-.79-2.4.79a.52.52,0,0,1-.55-.16l-1.37-1.68-4.77,1.56a.51.51,0,0,1-.56-.18l-1.35-1.88L277,451.34a.49.49,0,0,1-.53-.07.49.49,0,0,1-.17-.51l.63-2.36-3.7,2.35a.5.5,0,0,1-.56,0l-3.6-2.65-1,3a.52.52,0,0,1-.33.32.52.52,0,0,1-.45-.09l-2.56-2-4.47,3.37a.52.52,0,0,1-.42.09.51.51,0,0,1-.33-.26l-1.1-2.14L247,453a.51.51,0,0,1-.59-.33l-.51-1.55-7.54,1a.48.48,0,0,1-.4-.12l-2-1.76-4.21,1a.5.5,0,0,1-.59-.33l-.47-1.41-4.59,2a.5.5,0,0,1-.59-.15l-2.05-2.68-1.24,2.59a.5.5,0,0,1-.65.24l-3.23-1.4-.22,1.3a.52.52,0,0,1-.25.36.5.5,0,0,1-.43,0L210.31,449l-4.54,3.69a.5.5,0,0,1-.47.09l-4.36-1.36-6.27.55a.5.5,0,0,1-.45-.79l.91-1.26-15.71,2.32a.48.48,0,0,1-.38-.1.47.47,0,0,1-.19-.34l-.25-2.69-8,2.83a.47.47,0,0,1-.4,0,.52.52,0,0,1-.25-.31l-.75-2.86-3.86,3.12a.49.49,0,0,1-.66,0l-2.45-2.34-.21,2a.49.49,0,0,1-.26.39.5.5,0,0,1-.46,0l-3.54-1.8-2.3,1.75a.51.51,0,0,1-.63,0l-2.39-2.08-5.83.54-4.71,1.09a.5.5,0,0,1-.5-.16.49.49,0,0,1-.07-.52l.61-1.41-20.46,2.66a.43.43,0,0,1-.25,0L116.65,450l-4.27,1.86a.51.51,0,0,1-.4,0,.5.5,0,0,1-.27-.3l-.47-1.44-4.61,1.75a.51.51,0,0,1-.46-.06.52.52,0,0,1-.22-.41v-2.81l-7.56,3.54a.49.49,0,0,1-.62-.17l-3.08-4.38-2.14,3.26a.49.49,0,0,1-.33.22.53.53,0,0,1-.39-.09l-1.55-1.16-.2,1.39a.48.48,0,0,1-.28.37.47.47,0,0,1-.46,0l-4.75-2.67-.24,2.29a.5.5,0,0,1-.23.37.47.47,0,0,1-.43,0l-6.83-2.42-3.33,1.31a.49.49,0,0,1-.49-.07.51.51,0,0,1-.19-.46l.22-1.7-12.61,4.18a.53.53,0,0,1-.41,0,.51.51,0,0,1-.24-.33l-.5-2.4-3.55,1.9a.49.49,0,0,1-.47,0,.47.47,0,0,1-.26-.39l-.24-2.63L52,451a.49.49,0,0,1-.45.1.52.52,0,0,1-.35-.31l-1.06-3-4.25,2.71a.51.51,0,0,1-.45,0l-5.21-2,1.39,3a.5.5,0,0,1,0,.46.51.51,0,0,1-.38.25L35,452.8l3.25.91a.49.49,0,0,1-.06,1l-20.8,3.08Z" style="fill:#263238"></path></g></svg>
